<svg width="46" height="51" viewBox="0 0 46 51" fill="none" xmlns="http://www.w3.org/2000/svg">
<path d="M2.57181 23.8626C3.45173 19.3373 7.41521 16.0703 12.0252 16.0703L33.6006 16.0703C38.2107 16.0703 42.1741 19.3373 43.054 23.8626C44.21 29.8076 39.6569 35.3313 33.6006 35.3313H12.0252C5.96896 35.3313 1.41585 29.8076 2.57181 23.8626Z" fill="url(#paint0_linear_9650_114336)"/>
<g filter="url(#filter0_b_9650_114336)">
<ellipse cx="23.0891" cy="12.1965" rx="12.1594" ry="12.1594" fill="#BFB5FF" fill-opacity="0.6"/>
<path d="M34.9425 12.1965C34.9425 18.743 29.6356 24.05 23.0891 24.05C16.5426 24.05 11.2356 18.743 11.2356 12.1965C11.2356 5.65003 16.5426 0.343057 23.0891 0.343057C29.6356 0.343057 34.9425 5.65003 34.9425 12.1965Z" stroke="url(#paint1_linear_9650_114336)" stroke-width="0.611895"/>
</g>
<g filter="url(#filter1_b_9650_114336)">
<path d="M2.86133 40.0465C2.86133 45.5641 7.3343 50.0371 12.852 50.0371L32.8333 50.0371C38.351 50.0371 42.8239 45.5642 42.8239 40.0465C42.8239 32.6896 36.856 26.7256 29.4991 26.7256C24.7519 26.7256 20.9333 26.7256 16.1861 26.7256C8.82921 26.7256 2.86133 32.6895 2.86133 40.0465Z" fill="#BFB5FF" fill-opacity="0.6"/>
<path d="M3.16728 40.0465C3.16728 45.3952 7.50327 49.7312 12.852 49.7312L32.8333 49.7312C38.182 49.7312 42.518 45.3952 42.518 40.0465C42.518 32.8586 36.6872 27.0315 29.4991 27.0315L29.4713 27.0315L29.4435 27.0315L29.4158 27.0315L29.388 27.0315L29.3603 27.0315L29.3326 27.0315L29.3049 27.0315L29.2773 27.0315L29.2496 27.0315L29.222 27.0315L29.1944 27.0315L29.1669 27.0315L29.1393 27.0315L29.1118 27.0315L29.0842 27.0315L29.0567 27.0315L29.0293 27.0315L29.0018 27.0315L28.9744 27.0315L28.947 27.0315L28.9196 27.0315L28.8922 27.0315L28.8648 27.0315L28.8375 27.0315L28.8102 27.0315L28.7829 27.0315L28.7556 27.0315L28.7283 27.0315L28.7011 27.0315L28.6739 27.0315L28.6467 27.0315L28.6195 27.0315L28.5923 27.0315L28.5651 27.0315L28.538 27.0315L28.5109 27.0315L28.4838 27.0315L28.4567 27.0315L28.4297 27.0315L28.4026 27.0315L28.3756 27.0315L28.3486 27.0315L28.3216 27.0315L28.2946 27.0315L28.2677 27.0315L28.2408 27.0315L28.2138 27.0315L28.1869 27.0315L28.1601 27.0315L28.1332 27.0315L28.1063 27.0315L28.0795 27.0315L28.0527 27.0315L28.0259 27.0315L27.9991 27.0315L27.9724 27.0315L27.9456 27.0315L27.9189 27.0315L27.8922 27.0315L27.8655 27.0315L27.8388 27.0315L27.8121 27.0315L27.7855 27.0315L27.7588 27.0315L27.7322 27.0315L27.7056 27.0315L27.679 27.0315L27.6525 27.0315L27.6259 27.0315L27.5994 27.0315L27.5728 27.0315L27.5463 27.0315L27.5198 27.0315L27.4934 27.0315L27.4669 27.0315L27.4405 27.0315L27.414 27.0315L27.3876 27.0315L27.3612 27.0315L27.3348 27.0315L27.3084 27.0315L27.2821 27.0315L27.2557 27.0315L27.2294 27.0315L27.2031 27.0315L27.1768 27.0315L27.1505 27.0315L27.1242 27.0315L27.098 27.0315L27.0717 27.0315L27.0455 27.0315L27.0193 27.0315L26.9931 27.0315L26.9669 27.0315L26.9407 27.0315L26.9145 27.0315L26.8884 27.0315L26.8622 27.0315L26.8361 27.0315L26.81 27.0315L26.7839 27.0315L26.7578 27.0315L26.7317 27.0315L26.7057 27.0315L26.6796 27.0315L26.6536 27.0315L26.6276 27.0315L26.6016 27.0315L26.5756 27.0315L26.5496 27.0315L26.5236 27.0315L26.4976 27.0315L26.4717 27.0315L26.4458 27.0315L26.4198 27.0315L26.3939 27.0315L26.368 27.0315L26.3421 27.0315L26.3162 27.0315L26.2904 27.0315L26.2645 27.0315L26.2387 27.0315L26.2128 27.0315L26.187 27.0315L26.1612 27.0315L26.1354 27.0315L26.1096 27.0315L26.0838 27.0315L26.0581 27.0315L26.0323 27.0315L26.0065 27.0315L25.9808 27.0315L25.9551 27.0315L25.9294 27.0315L25.9037 27.0315L25.878 27.0315L25.8523 27.0315L25.8266 27.0315L25.8009 27.0315L25.7753 27.0315L25.7496 27.0315L25.724 27.0315L25.6983 27.0315L25.6727 27.0315L25.6471 27.0315L25.6215 27.0315L25.5959 27.0315L25.5703 27.0315L25.5448 27.0315L25.5192 27.0315L25.4936 27.0315L25.4681 27.0315L25.4425 27.0315L25.417 27.0315L25.3915 27.0315L25.366 27.0315L25.3405 27.0315L25.315 27.0315L25.2895 27.0315L25.264 27.0315L25.2385 27.0315L25.2131 27.0315L25.1876 27.0315L25.1622 27.0315L25.1367 27.0315L25.1113 27.0315L25.0858 27.0315L25.0604 27.0315L25.035 27.0315L25.0096 27.0315L24.9842 27.0315L24.9588 27.0315L24.9334 27.0315L24.9081 27.0315L24.8827 27.0315L24.8573 27.0315L24.832 27.0315L24.8066 27.0315L24.7813 27.0315L24.7559 27.0315L24.7306 27.0315L24.7053 27.0315L24.68 27.0315L24.6546 27.0315L24.6293 27.0315L24.604 27.0315L24.5787 27.0315L24.5534 27.0315L24.5282 27.0315L24.5029 27.0315L24.4776 27.0315L24.4523 27.0315L24.4271 27.0315L24.4018 27.0315L24.3766 27.0315L24.3513 27.0315L24.3261 27.0315L24.3008 27.0315L24.2756 27.0315L24.2504 27.0315L24.2252 27.0315L24.1999 27.0315L24.1747 27.0315L24.1495 27.0315L24.1243 27.0315L24.0991 27.0315L24.0739 27.0315L24.0487 27.0315L24.0235 27.0315L23.9984 27.0315L23.9732 27.0315L23.948 27.0315L23.9228 27.0315L23.8976 27.0315L23.8725 27.0315L23.8473 27.0315L23.8222 27.0315L23.797 27.0315L23.7718 27.0315L23.7467 27.0315L23.7216 27.0315L23.6964 27.0315L23.6713 27.0315L23.6461 27.0315L23.621 27.0315L23.5959 27.0315L23.5707 27.0315L23.5456 27.0315L23.5205 27.0315L23.4953 27.0315L23.4702 27.0315L23.4451 27.0315L23.42 27.0315L23.3949 27.0315L23.3698 27.0315L23.3446 27.0315L23.3195 27.0315L23.2944 27.0315L23.2693 27.0315L23.2442 27.0315L23.2191 27.0315L23.194 27.0315L23.1689 27.0315L23.1438 27.0315L23.1187 27.0315L23.0936 27.0315L23.0685 27.0315L23.0434 27.0315L23.0183 27.0315L22.9932 27.0315L22.9681 27.0315L22.943 27.0315L22.9179 27.0315L22.8928 27.0315L22.8677 27.0315L22.8426 27.0315L22.8175 27.0315L22.7924 27.0315L22.7673 27.0315L22.7422 27.0315L22.7172 27.0315L22.6921 27.0315L22.667 27.0315L22.6419 27.0315L22.6168 27.0315L22.5917 27.0315L22.5666 27.0315L22.5415 27.0315L22.5164 27.0315L22.4913 27.0315L22.4662 27.0315L22.441 27.0315L22.4159 27.0315L22.3908 27.0315L22.3657 27.0315L22.3406 27.0315L22.3155 27.0315L22.2904 27.0315L22.2653 27.0315L22.2402 27.0315L22.215 27.0315L22.1899 27.0315L22.1648 27.0315L22.1397 27.0315L22.1145 27.0315L22.0894 27.0315L22.0643 27.0315L22.0391 27.0315L22.014 27.0315L21.9888 27.0315L21.9637 27.0315L21.9386 27.0315L21.9134 27.0315L21.8883 27.0315L21.8631 27.0315L21.8379 27.0315L21.8128 27.0315L21.7876 27.0315L21.7624 27.0315L21.7373 27.0315L21.7121 27.0315L21.6869 27.0315L21.6617 27.0315L21.6365 27.0315L21.6113 27.0315L21.5861 27.0315L21.5609 27.0315L21.5357 27.0315L21.5105 27.0315L21.4853 27.0315L21.4601 27.0315L21.4349 27.0315L21.4096 27.0315L21.3844 27.0315L21.3592 27.0315L21.3339 27.0315L21.3087 27.0315L21.2834 27.0315L21.2582 27.0315L21.2329 27.0315L21.2076 27.0315L21.1824 27.0315L21.1571 27.0315L21.1318 27.0315L21.1065 27.0315L21.0812 27.0315L21.0559 27.0315L21.0306 27.0315L21.0053 27.0315L20.98 27.0315L20.9547 27.0315L20.9293 27.0315L20.904 27.0315L20.8786 27.0315L20.8533 27.0315L20.8279 27.0315L20.8026 27.0315L20.7772 27.0315L20.7518 27.0315L20.7264 27.0315L20.701 27.0315L20.6756 27.0315L20.6502 27.0315L20.6248 27.0315L20.5994 27.0315L20.574 27.0315L20.5485 27.0315L20.5231 27.0315L20.4977 27.0315L20.4722 27.0315L20.4467 27.0315L20.4213 27.0315L20.3958 27.0315L20.3703 27.0315L20.3448 27.0315L20.3193 27.0315L20.2938 27.0315L20.2682 27.0315L20.2427 27.0315L20.2172 27.0315L20.1916 27.0315L20.1661 27.0315L20.1405 27.0315L20.1149 27.0315L20.0893 27.0315L20.0637 27.0315L20.0381 27.0315L20.0125 27.0315L19.9869 27.0315L19.9613 27.0315L19.9356 27.0315L19.91 27.0315L19.8843 27.0315L19.8587 27.0315L19.833 27.0315L19.8073 27.0315L19.7816 27.0315L19.7559 27.0315L19.7302 27.0315L19.7044 27.0315L19.6787 27.0315L19.653 27.0315L19.6272 27.0315L19.6014 27.0315L19.5757 27.0315L19.5499 27.0315L19.5241 27.0315L19.4982 27.0315L19.4724 27.0315L19.4466 27.0315L19.4207 27.0315L19.3949 27.0315L19.369 27.0315L19.3431 27.0315L19.3172 27.0315L19.2913 27.0315L19.2654 27.0315L19.2395 27.0315L19.2136 27.0315L19.1876 27.0315L19.1616 27.0315L19.1357 27.0315L19.1097 27.0315L19.0837 27.0315L19.0577 27.0315L19.0317 27.0315L19.0056 27.0315L18.9796 27.0315L18.9535 27.0315L18.9274 27.0315L18.9014 27.0315L18.8753 27.0315L18.8491 27.0315L18.823 27.0315L18.7969 27.0315L18.7707 27.0315L18.7446 27.0315L18.7184 27.0315L18.6922 27.0315L18.666 27.0315L18.6398 27.0315L18.6135 27.0315L18.5873 27.0315L18.561 27.0315L18.5348 27.0315L18.5085 27.0315L18.4822 27.0315L18.4559 27.0315L18.4295 27.0315L18.4032 27.0315L18.3768 27.0315L18.3504 27.0315L18.3241 27.0315L18.2977 27.0315L18.2712 27.0315L18.2448 27.0315L18.2184 27.0315L18.1919 27.0315L18.1654 27.0315L18.1389 27.0315L18.1124 27.0315L18.0859 27.0315L18.0594 27.0315L18.0328 27.0315L18.0062 27.0315L17.9796 27.0315L17.953 27.0315L17.9264 27.0315L17.8998 27.0315L17.8731 27.0315L17.8465 27.0315L17.8198 27.0315L17.7931 27.0315L17.7664 27.0315L17.7396 27.0315L17.7129 27.0315L17.6861 27.0315L17.6594 27.0315L17.6326 27.0315L17.6057 27.0315L17.5789 27.0315L17.5521 27.0315L17.5252 27.0315L17.4983 27.0315L17.4714 27.0315L17.4445 27.0315L17.4176 27.0315L17.3906 27.0315L17.3636 27.0315L17.3367 27.0315L17.3097 27.0315L17.2826 27.0315L17.2556 27.0315L17.2285 27.0315L17.2015 27.0315L17.1744 27.0315L17.1472 27.0315L17.1201 27.0315L17.093 27.0315L17.0658 27.0315L17.0386 27.0315L17.0114 27.0315L16.9842 27.0315L16.9569 27.0315L16.9297 27.0315L16.9024 27.0315L16.8751 27.0315L16.8478 27.0315L16.8204 27.0315L16.7931 27.0315L16.7657 27.0315L16.7383 27.0315L16.7109 27.0315L16.6834 27.0315L16.656 27.0315L16.6285 27.0315L16.601 27.0315L16.5735 27.0315L16.546 27.0315L16.5184 27.0315L16.4908 27.0315L16.4632 27.0315L16.4356 27.0315L16.408 27.0315L16.3803 27.0315L16.3526 27.0315L16.3249 27.0315L16.2972 27.0315L16.2695 27.0315L16.2417 27.0315L16.2139 27.0315L16.1861 27.0315C8.99806 27.0315 3.16728 32.8586 3.16728 40.0465Z" stroke="url(#paint2_linear_9650_114336)" stroke-width="0.611895"/>
</g>
<defs>
<filter id="filter0_b_9650_114336" x="-1.71877" y="-12.6113" width="49.6153" height="49.6153" filterUnits="userSpaceOnUse" color-interpolation-filters="sRGB">
<feFlood flood-opacity="0" result="BackgroundImageFix"/>
<feGaussianBlur in="BackgroundImageFix" stdDeviation="6.32423"/>
<feComposite in2="SourceAlpha" operator="in" result="effect1_backgroundBlur_9650_114336"/>
<feBlend mode="normal" in="SourceGraphic" in2="effect1_backgroundBlur_9650_114336" result="shape"/>
</filter>
<filter id="filter1_b_9650_114336" x="-10.9953" y="12.869" width="67.6761" height="51.0248" filterUnits="userSpaceOnUse" color-interpolation-filters="sRGB">
<feFlood flood-opacity="0" result="BackgroundImageFix"/>
<feGaussianBlur in="BackgroundImageFix" stdDeviation="6.92831"/>
<feComposite in2="SourceAlpha" operator="in" result="effect1_backgroundBlur_9650_114336"/>
<feBlend mode="normal" in="SourceGraphic" in2="effect1_backgroundBlur_9650_114336" result="shape"/>
</filter>
<linearGradient id="paint0_linear_9650_114336" x1="13.3059" y1="20.2836" x2="36.7639" y2="39.1067" gradientUnits="userSpaceOnUse">
<stop stop-color="#917FFB"/>
<stop offset="1" stop-color="#3F2DAF"/>
</linearGradient>
<linearGradient id="paint1_linear_9650_114336" x1="10.9297" y1="4.59689" x2="22.6141" y2="23.7871" gradientUnits="userSpaceOnUse">
<stop stop-color="white"/>
<stop offset="0.99715" stop-color="white" stop-opacity="0"/>
</linearGradient>
<linearGradient id="paint2_linear_9650_114336" x1="4.73487" y1="28.7983" x2="44.1399" y2="47.0107" gradientUnits="userSpaceOnUse">
<stop stop-color="white"/>
<stop offset="1" stop-color="white" stop-opacity="0"/>
</linearGradient>
</defs>
</svg>
