<svg width="44" height="51" viewBox="0 0 44 51" fill="none" xmlns="http://www.w3.org/2000/svg">
<circle cx="21.885" cy="38.0549" r="11.9826" fill="url(#paint0_linear_9650_114362)"/>
<g filter="url(#filter0_b_9650_114362)">
<mask id="path-2-inside-1_9650_114362" fill="white">
<path fill-rule="evenodd" clip-rule="evenodd" d="M15.73 6.19243C15.73 2.79294 18.4858 0.0371094 21.8853 0.0371094C25.2848 0.0371094 28.0406 2.79294 28.0406 6.19243C28.0406 7.77164 27.4459 9.21195 26.4682 10.3016C32.9374 11.7669 37.7718 17.1663 38.5147 23.7593L39.5531 32.9754C39.588 33.2844 39.6001 33.5903 39.591 33.8914H40.1258C41.9501 33.8914 43.4291 35.3703 43.4291 37.1947C43.4291 38.833 42.2263 40.2268 40.6031 40.4486C26.5994 42.3613 17.5431 42.3451 3.17756 40.4376C1.55122 40.2216 0.341797 38.8279 0.341797 37.1872C0.341797 35.367 1.8174 33.8914 3.63764 33.8914H4.1769C4.16777 33.5903 4.17992 33.2844 4.21474 32.9754L5.25317 23.7593C5.99613 17.1655 10.8316 11.7656 17.3019 10.3011C16.3245 9.2115 15.73 7.77139 15.73 6.19243Z"/>
</mask>
<path fill-rule="evenodd" clip-rule="evenodd" d="M15.73 6.19243C15.73 2.79294 18.4858 0.0371094 21.8853 0.0371094C25.2848 0.0371094 28.0406 2.79294 28.0406 6.19243C28.0406 7.77164 27.4459 9.21195 26.4682 10.3016C32.9374 11.7669 37.7718 17.1663 38.5147 23.7593L39.5531 32.9754C39.588 33.2844 39.6001 33.5903 39.591 33.8914H40.1258C41.9501 33.8914 43.4291 35.3703 43.4291 37.1947C43.4291 38.833 42.2263 40.2268 40.6031 40.4486C26.5994 42.3613 17.5431 42.3451 3.17756 40.4376C1.55122 40.2216 0.341797 38.8279 0.341797 37.1872C0.341797 35.367 1.8174 33.8914 3.63764 33.8914H4.1769C4.16777 33.5903 4.17992 33.2844 4.21474 32.9754L5.25317 23.7593C5.99613 17.1655 10.8316 11.7656 17.3019 10.3011C16.3245 9.2115 15.73 7.77139 15.73 6.19243Z" fill="#6AE092" fill-opacity="0.6"/>
<path d="M26.4682 10.3016L26.0128 9.89297C25.8679 10.0545 25.8194 10.2806 25.8852 10.4873C25.9511 10.6941 26.1215 10.8505 26.3331 10.8984L26.4682 10.3016ZM38.5147 23.7593L37.9067 23.8278L38.5147 23.7593ZM39.5531 32.9754L38.9451 33.0439L39.5531 32.9754ZM39.591 33.8914L38.9794 33.8729C38.9743 34.0383 39.0366 34.1987 39.1518 34.3175C39.267 34.4363 39.4255 34.5033 39.591 34.5033V33.8914ZM40.6031 40.4486L40.6859 41.0548L40.6031 40.4486ZM3.17756 40.4376L3.09701 41.0442L3.17756 40.4376ZM4.1769 33.8914V34.5033C4.3424 34.5033 4.50084 34.4363 4.61608 34.3175C4.73132 34.1987 4.79352 34.0383 4.78851 33.8729L4.1769 33.8914ZM4.21474 32.9754L4.82278 33.0439L4.21474 32.9754ZM5.25317 23.7593L4.64513 23.6908L5.25317 23.7593ZM17.3019 10.3011L17.437 10.8979C17.6486 10.85 17.819 10.6936 17.8849 10.4869C17.9508 10.2802 17.9023 10.054 17.7574 9.89251L17.3019 10.3011ZM21.8853 -0.574786C18.1479 -0.574786 15.1181 2.455 15.1181 6.19243H16.3419C16.3419 3.13088 18.8238 0.649005 21.8853 0.649005V-0.574786ZM28.6525 6.19243C28.6525 2.455 25.6227 -0.574786 21.8853 -0.574786V0.649005C24.9469 0.649005 27.4287 3.13088 27.4287 6.19243H28.6525ZM26.9237 10.7102C27.9982 9.51268 28.6525 7.92824 28.6525 6.19243H27.4287C27.4287 7.61504 26.8937 8.91122 26.0128 9.89297L26.9237 10.7102ZM39.1227 23.6908C38.3507 16.839 33.3265 11.2276 26.6034 9.70483L26.3331 10.8984C32.5483 12.3061 37.1929 17.4936 37.9067 23.8278L39.1227 23.6908ZM40.1612 32.9069L39.1227 23.6908L37.9067 23.8278L38.9451 33.0439L40.1612 32.9069ZM40.2026 33.9099C40.2126 33.5798 40.1993 33.2449 40.1612 32.9069L38.9451 33.0439C38.9766 33.324 38.9876 33.6007 38.9794 33.8729L40.2026 33.9099ZM40.1258 33.2795H39.591V34.5033H40.1258V33.2795ZM44.041 37.1947C44.041 35.0324 42.2881 33.2795 40.1258 33.2795V34.5033C41.6122 34.5033 42.8172 35.7083 42.8172 37.1947H44.041ZM40.6859 41.0548C42.6158 40.7912 44.041 39.1353 44.041 37.1947H42.8172C42.8172 38.5306 41.8368 39.6625 40.5203 39.8423L40.6859 41.0548ZM3.09701 41.0442C17.5148 42.9587 26.626 42.9753 40.6859 41.0548L40.5203 39.8423C26.5727 41.7474 17.5714 41.7316 3.2581 39.831L3.09701 41.0442ZM-0.270099 37.1872C-0.270099 39.1316 1.16352 40.7874 3.09701 41.0442L3.2581 39.831C1.93892 39.6558 0.953692 38.5241 0.953692 37.1872H-0.270099ZM3.63764 33.2795C1.47946 33.2795 -0.270099 35.0291 -0.270099 37.1872H0.953692C0.953692 35.7049 2.15534 34.5033 3.63764 34.5033V33.2795ZM4.1769 33.2795H3.63764V34.5033H4.1769V33.2795ZM3.60669 32.9069C3.56861 33.2449 3.55528 33.5798 3.56528 33.9099L4.78851 33.8729C4.78026 33.6007 4.79123 33.324 4.82278 33.0439L3.60669 32.9069ZM4.64513 23.6908L3.60669 32.9069L4.82278 33.0439L5.86122 23.8278L4.64513 23.6908ZM17.1668 9.7043C10.4425 11.2263 5.41725 16.8382 4.64513 23.6908L5.86122 23.8278C6.57502 17.4929 11.2207 12.3049 17.437 10.8979L17.1668 9.7043ZM15.1181 6.19243C15.1181 7.92797 15.7722 9.51218 16.8464 10.7097L17.7574 9.89251C16.8768 8.91081 16.3419 7.61482 16.3419 6.19243H15.1181Z" fill="url(#paint1_linear_9650_114362)" mask="url(#path-2-inside-1_9650_114362)"/>
</g>
<defs>
<filter id="filter0_b_9650_114362" x="-13.0666" y="-13.3713" width="69.9038" height="68.6557" filterUnits="userSpaceOnUse" color-interpolation-filters="sRGB">
<feFlood flood-opacity="0" result="BackgroundImageFix"/>
<feGaussianBlur in="BackgroundImageFix" stdDeviation="6.70422"/>
<feComposite in2="SourceAlpha" operator="in" result="effect1_backgroundBlur_9650_114362"/>
<feBlend mode="normal" in="SourceGraphic" in2="effect1_backgroundBlur_9650_114362" result="shape"/>
</filter>
<linearGradient id="paint0_linear_9650_114362" x1="15.2323" y1="34.5881" x2="38.266" y2="54.8128" gradientUnits="userSpaceOnUse">
<stop stop-color="#75EDA1"/>
<stop offset="1" stop-color="#349256"/>
</linearGradient>
<linearGradient id="paint1_linear_9650_114362" x1="8.03595" y1="12.3478" x2="34.1961" y2="41.5855" gradientUnits="userSpaceOnUse">
<stop stop-color="white"/>
<stop offset="1" stop-color="white" stop-opacity="0"/>
</linearGradient>
</defs>
</svg>
