<svg width="51" height="51" viewBox="0 0 51 51" fill="none" xmlns="http://www.w3.org/2000/svg">
<rect x="0.507812" y="0.246582" width="50" height="50" rx="8" fill="#0052FF"/>
<path d="M18.7578 20.0591H33.7578C34.1391 20.0591 34.5047 20.2105 34.7743 20.4801C35.0439 20.7497 35.1953 21.1153 35.1953 21.4966V31.9966C35.1953 32.3778 35.0439 32.7435 34.7743 33.013C34.5047 33.2826 34.1391 33.4341 33.7578 33.4341H18.7581C18.1786 33.4317 17.6235 33.2004 17.2137 32.7907C16.804 32.3809 16.5727 31.8259 16.5703 31.2465V19.2467C16.5727 18.6673 16.804 18.1122 17.2137 17.7025C17.6235 17.2928 18.1785 17.0615 18.7579 17.0591H31.5078C31.6901 17.0591 31.865 17.1315 31.9939 17.2604C32.1229 17.3894 32.1953 17.5642 32.1953 17.7466C32.1953 17.9289 32.1229 18.1038 31.9939 18.2327C31.865 18.3616 31.6901 18.4341 31.5078 18.4341H18.7578C18.5423 18.4341 18.3357 18.5197 18.1833 18.6721C18.0309 18.8244 17.9453 19.0311 17.9453 19.2466C17.9453 19.4621 18.0309 19.6687 18.1833 19.8211C18.3357 19.9735 18.5423 20.0591 18.7578 20.0591ZM29.7231 27.734C29.9184 27.8644 30.1479 27.9341 30.3828 27.9341C30.6978 27.9341 30.9998 27.809 31.2225 27.5863C31.4452 27.3636 31.5703 27.0615 31.5703 26.7466C31.5703 26.5117 31.5007 26.2821 31.3702 26.0868C31.2397 25.8916 31.0542 25.7394 30.8372 25.6495C30.6203 25.5596 30.3815 25.5361 30.1511 25.5819C29.9208 25.6277 29.7092 25.7408 29.5431 25.9069C29.377 26.073 29.2639 26.2846 29.2181 26.5149C29.1723 26.7453 29.1958 26.984 29.2857 27.201C29.3756 27.418 29.5278 27.6035 29.7231 27.734Z" fill="white" stroke="white" stroke-width="0.125"/>
</svg>
