<svg width="51" height="51" viewBox="0 0 51 51" fill="none" xmlns="http://www.w3.org/2000/svg">
<rect x="0.507812" y="0.246582" width="50" height="50" rx="8" fill="#0052FF"/>
<path d="M29.6327 17.7184L21.3827 17.7466C20.0593 17.7445 18.7777 18.2099 17.764 19.0607C16.7503 19.9115 16.0696 21.0929 15.8421 22.3966M29.6327 17.7184L29.6326 17.7809L21.3829 17.8091L21.3826 17.8091C20.0739 17.8071 18.8066 18.2673 17.8042 19.1086C16.8031 19.9487 16.1305 21.1149 15.9046 22.402M29.6327 17.7184C30.9499 17.7193 32.2251 18.1824 33.2359 19.027C34.2467 19.8716 34.929 21.0442 35.1639 22.3403L29.6327 17.7184ZM15.9046 22.402V22.3966H15.8421M15.9046 22.402C15.9043 22.4038 15.9039 22.4055 15.9036 22.4073L15.8421 22.3966M15.9046 22.402V22.4153V22.4275L15.9034 22.4273L14.3755 30.2826C14.3754 30.2827 14.3754 30.2829 14.3754 30.283C14.2987 30.7114 14.3075 31.1506 14.4011 31.5755C14.4947 32.0006 14.6715 32.403 14.9211 32.7595C15.1708 33.1161 15.4885 33.4198 15.8559 33.6531C16.2233 33.8865 16.6333 34.0449 17.0621 34.1194L17.0635 34.1196C17.2509 34.1566 17.4415 34.175 17.6326 34.1747C18.5101 34.1729 19.3518 33.8268 19.9768 33.2109L20.012 33.1669L20.0144 33.1639L20.0145 33.164L23.8301 28.9453L23.8486 28.9249L23.8761 28.9247L27.148 28.9059L27.1761 28.9058L27.1949 28.9267L31 33.1723L31.0456 33.2179C31.6662 33.8364 32.5065 34.1838 33.3826 34.1841C33.5769 34.1839 33.7708 34.1655 33.9616 34.1289L33.9623 34.1288C34.8262 33.9739 35.5938 33.4834 36.0973 32.7644C36.5907 32.0598 36.7911 31.1919 36.6578 30.3434H36.6498L36.6401 30.2928L35.1133 22.3781L35.1059 22.3707L35.1024 22.3515C34.8701 21.0697 34.1954 19.9102 33.1958 19.075C32.1963 18.2398 30.9353 17.7818 29.6328 17.7809L15.8421 22.4153V22.3966M33.7216 32.78L33.7218 32.78C34.2241 32.6901 34.6707 32.4056 34.9645 31.9885C35.2583 31.5713 35.3757 31.0551 35.2912 30.5518L35.2912 30.5518L35.2909 30.5504L34.4753 26.3129L34.4452 26.1562L34.3609 26.2917C33.861 27.095 33.1644 27.7576 32.3371 28.2167C31.5097 28.6758 30.5789 28.9162 29.6327 28.9153H29.6327H29.1546H29.0141L29.1081 29.0197L32.0238 32.254L32.0237 32.2541L32.0266 32.257C32.2475 32.4722 32.5164 32.6318 32.8111 32.7228C33.1058 32.8137 33.4178 32.8333 33.7216 32.78ZM22.5702 24.8716V24.1841H23.2577C23.4732 24.1841 23.6798 24.0985 23.8322 23.9461C23.9846 23.7937 24.0702 23.5871 24.0702 23.3716C24.0702 23.1561 23.9846 22.9494 23.8322 22.797C23.6798 22.6447 23.4732 22.5591 23.2577 22.5591H22.5702V21.8716C22.5702 21.6561 22.4846 21.4494 22.3322 21.297C22.1798 21.1447 21.9732 21.0591 21.7577 21.0591C21.5422 21.0591 21.3355 21.1447 21.1832 21.297C21.0308 21.4494 20.9452 21.6561 20.9452 21.8716V22.5591H20.2577C20.0422 22.5591 19.8355 22.6447 19.6832 22.797C19.5308 22.9494 19.4452 23.1561 19.4452 23.3716C19.4452 23.5871 19.5308 23.7937 19.6832 23.9461C19.8355 24.0985 20.0422 24.1841 20.2577 24.1841H20.9452V24.8716C20.9452 25.0871 21.0308 25.2937 21.1832 25.4461C21.3355 25.5985 21.5422 25.6841 21.7577 25.6841C21.9732 25.6841 22.1798 25.5985 22.3322 25.4461C22.4846 25.2937 22.5702 25.0871 22.5702 24.8716ZM27.1832 22.797C27.0308 22.9494 26.9452 23.1561 26.9452 23.3716C26.9452 23.5871 27.0308 23.7937 27.1832 23.9461C27.3355 24.0985 27.5422 24.1841 27.7577 24.1841H30.7577C30.9732 24.1841 31.1798 24.0985 31.3322 23.9461C31.4846 23.7937 31.5702 23.5871 31.5702 23.3716C31.5702 23.1561 31.4846 22.9494 31.3322 22.797C31.1798 22.6447 30.9732 22.5591 30.7577 22.5591H27.7577C27.5422 22.5591 27.3355 22.6447 27.1832 22.797Z" fill="white" stroke="white" stroke-width="0.125"/>
</svg>
