<svg width="51" height="51" viewBox="0 0 51 51" fill="none" xmlns="http://www.w3.org/2000/svg">
<rect x="0.507812" y="0.246582" width="50" height="50" rx="8" fill="#0052FF"/>
<path d="M17.3203 26.7467V26.7466V18.4966C17.3203 18.1153 17.4718 17.7497 17.7414 17.4801C18.0109 17.2105 18.3766 17.0591 18.7578 17.0591H22.5078C22.8891 17.0591 23.2547 17.2105 23.5243 17.4801C23.7939 17.7497 23.9453 18.1153 23.9453 18.4966V26.7466C23.9453 27.161 24.1099 27.5584 24.403 27.8514C24.696 28.1445 25.0934 28.3091 25.5078 28.3091C25.9222 28.3091 26.3196 28.1445 26.6127 27.8514C26.9057 27.5584 27.0703 27.161 27.0703 26.7466V18.4966C27.0703 18.1153 27.2218 17.7497 27.4914 17.4801C27.7609 17.2105 28.1266 17.0591 28.5078 17.0591H32.2578C32.6391 17.0591 33.0047 17.2105 33.2743 17.4801C33.5439 17.7497 33.6953 18.1153 33.6953 18.4966V26.6528C33.6953 31.1847 30.0475 34.8967 25.5732 34.9341C25.5731 34.9341 25.573 34.9341 25.5729 34.9341L25.5078 34.9341H25.5077C24.4322 34.9353 23.367 34.7244 22.3731 34.3133C21.3792 33.9023 20.4761 33.2993 19.7156 32.5388C18.9551 31.7783 18.3521 30.8752 17.9411 29.8813C17.53 28.8874 17.3191 27.8222 17.3203 26.7467ZM32.3203 18.4966V18.4341H32.2578H28.5078H28.4453V18.4966V22.2466V22.3091H28.5078H32.2578H32.3203V22.2466V18.4966ZM22.5703 18.4966V18.4341H22.5078H18.7578H18.6953V18.4966V22.2466V22.3091H18.7578H22.5078H22.5703V22.2466V18.4966Z" fill="white" stroke="white" stroke-width="0.125"/>
</svg>
