<svg width="51" height="51" viewBox="0 0 51 51" fill="none" xmlns="http://www.w3.org/2000/svg">
<rect x="0.507812" y="0.246582" width="50" height="50" rx="8" fill="#0052FF"/>
<path d="M29.2578 15.5591L29.2582 15.5591C29.4412 15.5581 29.6172 15.629 29.7483 15.7567C29.7484 15.7568 29.7485 15.7569 29.7486 15.757L33.4974 19.5058C33.4975 19.5059 33.4976 19.506 33.4977 19.5061C33.6253 19.6372 33.6963 19.8132 33.6953 19.9962V19.9966V30.4966C33.6953 30.8778 33.5439 31.2435 33.2743 31.5131C33.0047 31.7826 32.6391 31.9341 32.2578 31.9341H30.7578H30.6953V31.9966V33.4966C30.6953 33.8778 30.5439 34.2435 30.2743 34.5131C30.0047 34.7826 29.6391 34.9341 29.2578 34.9341H18.7578C18.3766 34.9341 18.0109 34.7826 17.7413 34.5131C17.4718 34.2435 17.3203 33.8778 17.3203 33.4966V19.9966C17.3203 19.6153 17.4718 19.2497 17.7413 18.9801C18.0109 18.7105 18.3766 18.5591 18.7578 18.5591H20.2578H20.3203V18.4966V16.9966C20.3203 16.6153 20.4718 16.2497 20.7413 15.9801C21.0109 15.7105 21.3766 15.5591 21.7578 15.5591L29.2578 15.5591ZM32.2578 30.5591H32.3203V30.4966V20.306V20.2801L32.302 20.2618L28.9926 16.9524L28.9743 16.9341H28.9484H21.7578H21.6953V16.9966V18.4966V18.5591H21.7578L26.2578 18.5591L26.2582 18.5591C26.4412 18.5581 26.6172 18.629 26.7483 18.7567C26.7484 18.7568 26.7485 18.7569 26.7486 18.757L30.4974 22.5058C30.4975 22.5059 30.4976 22.506 30.4977 22.5061C30.6254 22.6372 30.6963 22.8133 30.6953 22.9962V22.9966V30.4966V30.5591H30.7578H32.2578ZM30.7578 30.4341V22.9966L32.2578 20.306V30.4341V30.4966H32.1953H30.8203H30.7578V30.4341ZM21.7578 31.3091H26.2578C26.4733 31.3091 26.68 31.2235 26.8323 31.0711C26.9847 30.9187 27.0703 30.7121 27.0703 30.4966C27.0703 30.2811 26.9847 30.0744 26.8323 29.9221C26.68 29.7697 26.4733 29.6841 26.2578 29.6841H21.7578C21.5423 29.6841 21.3357 29.7697 21.1833 29.9221C21.0309 30.0744 20.9453 30.2811 20.9453 30.4966C20.9453 30.7121 21.0309 30.9187 21.1833 31.0711C21.3357 31.2235 21.5423 31.3091 21.7578 31.3091ZM21.7578 28.3091H26.2578C26.4733 28.3091 26.68 28.2235 26.8323 28.0711C26.9847 27.9187 27.0703 27.7121 27.0703 27.4966C27.0703 27.2811 26.9847 27.0744 26.8323 26.9221C26.68 26.7697 26.4733 26.6841 26.2578 26.6841H21.7578C21.5423 26.6841 21.3357 26.7697 21.1833 26.9221C21.0309 27.0744 20.9453 27.2811 20.9453 27.4966C20.9453 27.7121 21.0309 27.9187 21.1833 28.0711C21.3357 28.2235 21.5423 28.3091 21.7578 28.3091Z" fill="white" stroke="white" stroke-width="0.125"/>
</svg>
