<svg width="52" height="54" viewBox="0 0 52 54" fill="none" xmlns="http://www.w3.org/2000/svg">
<path d="M22.8449 32.2965C22.3529 31.8505 21.7868 31.5134 21.194 31.2926C20.6012 31.0718 19.9832 30.9629 19.3667 30.9629C18.5412 30.9629 17.7128 31.1572 16.9496 31.5561C16.5687 31.7563 16.2071 32.0065 15.8781 32.3068C15.5491 32.6056 15.2557 32.9529 15.0111 33.3342L7.67236 44.7534C9.22845 46.4152 10.9964 47.8783 12.9349 49.1L19.3711 39.0835L28.4972 53.1684C31.0047 53.0477 33.4203 52.5826 35.6996 51.8201L23.7104 33.3165C23.4644 32.9367 23.1709 32.5923 22.8434 32.2965H22.8449Z" fill="#1E3EF0"/>
<path d="M16.037 21.3674C16.529 21.8134 17.0951 22.1504 17.6864 22.3712C18.2792 22.592 18.8957 22.701 19.5122 22.701C20.3318 22.701 21.1557 22.5096 21.9145 22.1151C22.2924 21.9179 22.654 21.6706 22.9816 21.3747C23.3091 21.0804 23.6025 20.7374 23.8485 20.3606L35.9889 1.75395C33.7259 0.967939 31.3236 0.476316 28.8295 0.324707L19.5167 14.5965L12.8996 4.39606C10.9642 5.61923 9.19911 7.08527 7.646 8.75002L15.17 20.3473C15.416 20.7256 15.7095 21.0701 16.037 21.3659V21.3674Z" fill="#5AD4FF"/>
<path d="M13.4968 30.3462C13.971 29.8516 14.3296 29.2761 14.5638 28.6741C14.7994 28.0706 14.9135 27.4406 14.9135 26.8121C14.9135 25.979 14.712 25.14 14.2941 24.3716C14.0851 23.9874 13.8228 23.6239 13.5101 23.2942C13.1974 22.9659 12.8358 22.673 12.4386 22.4331L2.62049 16.4762C1.71648 18.609 1.08664 20.8846 0.772461 23.2588L6.6174 26.8047L0.784317 30.2976C1.10443 32.6645 1.73871 34.9327 2.64717 37.0582L12.4164 31.2058C12.8165 30.9658 13.1826 30.6744 13.4982 30.3447L13.4968 30.3462Z" fill="#1E3EF0"/>
<path d="M32.3879 26.8062L51.2431 15.3458C50.2576 13.2968 49.0157 11.3951 47.5574 9.67883L26.5681 22.4346C26.1709 22.6745 25.8093 22.9674 25.4981 23.2956C25.0298 23.7887 24.6741 24.3613 24.443 24.9604C24.2103 25.5595 24.0977 26.1865 24.0977 26.8121C24.0977 27.6481 24.3022 28.4901 24.7216 29.2614C24.932 29.6455 25.1958 30.012 25.51 30.3403C25.8242 30.67 26.1887 30.9614 26.5874 31.2014L47.5456 43.804C49.0053 42.0892 50.2502 40.1875 51.2357 38.1386L32.3864 26.8047L32.3879 26.8062Z" fill="#1E3EF0"/>
</svg>
