<svg width="138" height="40" viewBox="0 0 138 40" fill="none" xmlns="http://www.w3.org/2000/svg">
<path d="M52.5793 13.7292V18.7289H59.3699V21.9001H52.5793V27.1851H60.2366V30.4421H48.5342V10.4722H60.2366V13.7292H52.5793Z" fill="white"/>
<path d="M68.1821 17.9V25.5561C68.1821 26.0899 68.3117 26.4754 68.572 26.7127C68.8324 26.9512 69.2697 27.0704 69.8873 27.0704H71.7651V30.4411H69.2224C65.813 30.4411 64.1077 28.8031 64.1077 25.5272V17.9H62.2007V14.6151H64.1077V10.7018H68.1821V14.6151H71.7651V17.9H68.1821Z" fill="white"/>
<path d="M86.5003 15.1724C87.4437 15.6961 88.1808 16.4671 88.7105 17.4867C89.2403 18.5063 89.5051 19.7286 89.5051 21.1571V30.4412H85.4601V21.6998C85.4601 20.4429 85.1422 19.4768 84.5065 18.8004C83.8709 18.1252 83.0042 17.7864 81.9064 17.7864C80.8086 17.7864 79.9081 18.1252 79.2623 18.8004C78.6164 19.4768 78.2941 20.4429 78.2941 21.6998V30.4412H74.249V9.30127H78.2941V16.5864C78.8137 15.9011 79.508 15.3629 80.3747 14.9729C81.2414 14.5829 82.2051 14.3868 83.2645 14.3868C84.4784 14.3868 85.557 14.6487 86.5003 15.1724Z" fill="white"/>
<path d="M95.8632 29.6834C94.6302 29.0081 93.6621 28.051 92.9588 26.8119C92.2555 25.574 91.9038 24.1455 91.9038 22.5264C91.9038 20.9074 92.2645 19.48 92.9869 18.2409C93.7094 17.003 94.6967 16.0458 95.9489 15.3695C97.2011 14.6942 98.5975 14.3555 100.138 14.3555C101.679 14.3555 103.075 14.6942 104.328 15.3695C105.58 16.0458 106.567 17.003 107.29 18.2409C108.012 19.4789 108.373 20.9074 108.373 22.5264C108.373 24.1455 108.002 25.574 107.26 26.8119C106.519 28.0499 105.517 29.007 104.255 29.6834C102.993 30.3597 101.583 30.6974 100.022 30.6974C98.4611 30.6974 97.094 30.3597 95.861 29.6834H95.8632ZM102.09 26.6838C102.735 26.3317 103.25 25.8035 103.637 25.0982C104.022 24.3939 104.215 23.5371 104.215 22.5275C104.215 21.0233 103.815 19.8667 103.016 19.0566C102.217 18.2476 101.238 17.842 100.083 17.842C98.9278 17.842 97.9596 18.2465 97.1797 19.0566C96.3997 19.8667 96.0097 21.0233 96.0097 22.5275C96.0097 24.0318 96.3896 25.1895 97.1515 25.9985C97.9123 26.8086 98.8703 27.213 100.027 27.213C100.758 27.213 101.447 27.037 102.093 26.6849L102.09 26.6838Z" fill="white"/>
<path d="M117 15.1011C117.837 14.6254 118.795 14.3869 119.875 14.3869V18.5866H118.805C117.534 18.5866 116.575 18.8819 115.93 19.4724C115.284 20.063 114.962 21.0915 114.962 22.5579V30.4424H110.917V14.6164H114.962V17.0734C115.482 16.2355 116.161 15.5781 116.999 15.1023L117 15.1011Z" fill="white"/>
<path d="M122.085 18.2142C122.73 16.9762 123.607 16.0246 124.715 15.3572C125.823 14.6908 127.06 14.3577 128.427 14.3577C129.622 14.3577 130.667 14.5961 131.563 15.0719C132.459 15.5477 133.176 16.1483 133.716 16.8715V14.6151H137.79V30.4411H133.716V28.1267C133.196 28.8699 132.478 29.4839 131.563 29.9697C130.648 30.4555 129.593 30.6985 128.399 30.6985C127.05 30.6985 125.823 30.3553 124.715 29.67C123.607 28.9847 122.73 28.0175 122.085 26.7706C121.44 25.5238 121.117 24.0897 121.117 22.4718C121.117 20.8539 121.44 19.4532 122.085 18.2153V18.2142ZM133.137 20.0282C132.752 19.3329 132.231 18.8003 131.578 18.4281C130.923 18.057 130.219 17.871 129.469 17.871C128.718 17.871 128.024 18.0526 127.388 18.4136C126.753 18.7758 126.238 19.3039 125.842 19.9992C125.447 20.6945 125.249 21.518 125.249 22.4707C125.249 23.4234 125.446 24.2557 125.842 24.97C126.236 25.6842 126.757 26.2325 127.402 26.6124C128.046 26.9935 128.735 27.184 129.468 27.184C130.2 27.184 130.922 26.998 131.576 26.6269C132.231 26.2559 132.751 25.7221 133.136 25.0268C133.522 24.3315 133.715 23.498 133.715 22.5275C133.715 21.557 133.522 20.7235 133.136 20.0282H133.137Z" fill="white"/>
<path d="M16.7866 24.2014C16.4124 23.8638 15.9818 23.6086 15.531 23.4415C15.0802 23.2744 14.6102 23.1919 14.1413 23.1919C13.5135 23.1919 12.8835 23.339 12.3031 23.6409C12.0134 23.7925 11.7384 23.9819 11.4882 24.2092C11.238 24.4354 11.0148 24.6984 10.8288 24.987L5.24756 33.6315C6.43099 34.8895 7.77559 35.9971 9.24981 36.9219L14.1447 29.3393L21.0852 40.0018C22.9923 39.9104 24.8294 39.5583 26.5628 38.9811L17.4448 24.9736C17.2577 24.6861 17.0345 24.4254 16.7854 24.2014H16.7866Z" fill="#1E3EF0"/>
<path d="M11.6095 15.9279C11.9837 16.2655 12.4143 16.5207 12.864 16.6878C13.3148 16.855 13.7837 16.9374 14.2525 16.9374C14.8758 16.9374 15.5025 16.7926 16.0795 16.494C16.3669 16.3446 16.6419 16.1575 16.891 15.9335C17.1401 15.7106 17.3633 15.451 17.5504 15.1658L26.7834 1.08025C25.0623 0.485228 23.2353 0.113061 21.3385 -0.00170898L14.2559 10.8023L9.22352 3.08037C7.75155 4.00632 6.4092 5.11614 5.22803 6.37638L10.9502 15.1557C11.1373 15.4421 11.3605 15.7028 11.6095 15.9268V15.9279Z" fill="#5AD4FF"/>
<path d="M9.67708 22.7249C10.0377 22.3505 10.3105 21.9149 10.4886 21.4591C10.6678 21.0023 10.7546 20.5254 10.7546 20.0496C10.7546 19.4189 10.6013 18.7838 10.2834 18.2021C10.1245 17.9113 9.92504 17.6361 9.68723 17.3865C9.44941 17.138 9.17441 16.9162 8.87235 16.7346L1.40546 12.2252C0.717948 13.8397 0.23894 15.5624 0 17.3597L4.44519 20.044L0.00901661 22.6882C0.252465 24.4799 0.734854 26.197 1.42575 27.806L8.85544 23.3757C9.15975 23.194 9.43814 22.9734 9.67821 22.7238L9.67708 22.7249Z" fill="#1E3EF0"/>
<path d="M24.0436 20.0451L38.3834 11.3694C37.6339 9.81829 36.6894 8.37865 35.5804 7.07941L19.6176 16.7357C19.3155 16.9173 19.0405 17.139 18.8039 17.3875C18.4477 17.7608 18.1772 18.1943 18.0014 18.6478C17.8244 19.1013 17.7388 19.576 17.7388 20.0495C17.7388 20.6824 17.8943 21.3198 18.2133 21.9037C18.3733 22.1945 18.5739 22.4719 18.8129 22.7204C19.0518 22.97 19.3291 23.1907 19.6323 23.3723L35.5714 32.9127C36.6816 31.6145 37.6283 30.1749 38.3778 28.6238L24.0425 20.044L24.0436 20.0451Z" fill="#1E3EF0"/>
</svg>
