<svg width="21" height="20" viewBox="0 0 21 20" fill="none" xmlns="http://www.w3.org/2000/svg">
<path fill-rule="evenodd" clip-rule="evenodd" d="M4.5625 3.125C4.04473 3.125 3.625 3.54473 3.625 4.0625C3.625 4.58027 4.04473 5 4.5625 5C5.08027 5 5.5 4.58027 5.5 4.0625C5.5 3.54473 5.08027 3.125 4.5625 3.125ZM2.375 4.0625C2.375 2.85438 3.35438 1.875 4.5625 1.875C5.77062 1.875 6.75 2.85438 6.75 4.0625C6.75 5.27062 5.77062 6.25 4.5625 6.25C3.35438 6.25 2.375 5.27062 2.375 4.0625ZM10.5 3.125C9.98223 3.125 9.5625 3.54473 9.5625 4.0625C9.5625 4.58027 9.98223 5 10.5 5C11.0178 5 11.4375 4.58027 11.4375 4.0625C11.4375 3.54473 11.0178 3.125 10.5 3.125ZM8.3125 4.0625C8.3125 2.85438 9.29188 1.875 10.5 1.875C11.7081 1.875 12.6875 2.85438 12.6875 4.0625C12.6875 5.27062 11.7081 6.25 10.5 6.25C9.29188 6.25 8.3125 5.27062 8.3125 4.0625ZM16.4375 3.125C15.9197 3.125 15.5 3.54473 15.5 4.0625C15.5 4.58027 15.9197 5 16.4375 5C16.9553 5 17.375 4.58027 17.375 4.0625C17.375 3.54473 16.9553 3.125 16.4375 3.125ZM14.25 4.0625C14.25 2.85438 15.2294 1.875 16.4375 1.875C17.6456 1.875 18.625 2.85438 18.625 4.0625C18.625 5.27062 17.6456 6.25 16.4375 6.25C15.2294 6.25 14.25 5.27062 14.25 4.0625ZM4.5625 9.0625C4.04473 9.0625 3.625 9.48223 3.625 10C3.625 10.5178 4.04473 10.9375 4.5625 10.9375C5.08027 10.9375 5.5 10.5178 5.5 10C5.5 9.48223 5.08027 9.0625 4.5625 9.0625ZM2.375 10C2.375 8.79188 3.35438 7.8125 4.5625 7.8125C5.77062 7.8125 6.75 8.79188 6.75 10C6.75 11.2081 5.77062 12.1875 4.5625 12.1875C3.35438 12.1875 2.375 11.2081 2.375 10ZM10.5 9.0625C9.98223 9.0625 9.5625 9.48223 9.5625 10C9.5625 10.5178 9.98223 10.9375 10.5 10.9375C11.0178 10.9375 11.4375 10.5178 11.4375 10C11.4375 9.48223 11.0178 9.0625 10.5 9.0625ZM8.3125 10C8.3125 8.79188 9.29188 7.8125 10.5 7.8125C11.7081 7.8125 12.6875 8.79188 12.6875 10C12.6875 11.2081 11.7081 12.1875 10.5 12.1875C9.29188 12.1875 8.3125 11.2081 8.3125 10ZM16.4375 9.0625C15.9197 9.0625 15.5 9.48223 15.5 10C15.5 10.5178 15.9197 10.9375 16.4375 10.9375C16.9553 10.9375 17.375 10.5178 17.375 10C17.375 9.48223 16.9553 9.0625 16.4375 9.0625ZM14.25 10C14.25 8.79188 15.2294 7.8125 16.4375 7.8125C17.6456 7.8125 18.625 8.79188 18.625 10C18.625 11.2081 17.6456 12.1875 16.4375 12.1875C15.2294 12.1875 14.25 11.2081 14.25 10ZM4.5625 15C4.04473 15 3.625 15.4197 3.625 15.9375C3.625 16.4553 4.04473 16.875 4.5625 16.875C5.08027 16.875 5.5 16.4553 5.5 15.9375C5.5 15.4197 5.08027 15 4.5625 15ZM2.375 15.9375C2.375 14.7294 3.35438 13.75 4.5625 13.75C5.77062 13.75 6.75 14.7294 6.75 15.9375C6.75 17.1456 5.77062 18.125 4.5625 18.125C3.35438 18.125 2.375 17.1456 2.375 15.9375ZM10.5 15C9.98223 15 9.5625 15.4197 9.5625 15.9375C9.5625 16.4553 9.98223 16.875 10.5 16.875C11.0178 16.875 11.4375 16.4553 11.4375 15.9375C11.4375 15.4197 11.0178 15 10.5 15ZM8.3125 15.9375C8.3125 14.7294 9.29188 13.75 10.5 13.75C11.7081 13.75 12.6875 14.7294 12.6875 15.9375C12.6875 17.1456 11.7081 18.125 10.5 18.125C9.29188 18.125 8.3125 17.1456 8.3125 15.9375ZM16.4375 15C15.9197 15 15.5 15.4197 15.5 15.9375C15.5 16.4553 15.9197 16.875 16.4375 16.875C16.9553 16.875 17.375 16.4553 17.375 15.9375C17.375 15.4197 16.9553 15 16.4375 15ZM14.25 15.9375C14.25 14.7294 15.2294 13.75 16.4375 13.75C17.6456 13.75 18.625 14.7294 18.625 15.9375C18.625 17.1456 17.6456 18.125 16.4375 18.125C15.2294 18.125 14.25 17.1456 14.25 15.9375Z" fill="#9E9E9F"/>
</svg>
