<svg width="24" height="25" viewBox="0 0 24 25" fill="none" xmlns="http://www.w3.org/2000/svg">
<g clip-path="url(#clip0_8785_88681)">
<path d="M19.2852 5.38277C17.9467 4.76862 16.5114 4.31614 15.0107 4.057C14.9834 4.05199 14.9561 4.06449 14.942 4.08949C14.7574 4.4178 14.553 4.84611 14.4098 5.18277C12.7957 4.94112 11.1899 4.94112 9.60882 5.18277C9.46563 4.83863 9.25375 4.4178 9.06829 4.08949C9.05425 4.06533 9.02695 4.05283 8.99961 4.057C7.49972 4.31532 6.06442 4.76779 4.72513 5.38277C4.71354 5.38777 4.7036 5.39611 4.697 5.40693C1.97453 9.47424 1.22873 13.4416 1.5946 17.3597C1.59625 17.3789 1.60701 17.3972 1.62191 17.4089C3.41812 18.728 5.15805 19.5288 6.8657 20.0596C6.893 20.068 6.92196 20.058 6.93937 20.0354C7.34332 19.4838 7.70338 18.9022 8.01212 18.2905C8.03032 18.2547 8.01291 18.2122 7.97568 18.198C7.40457 17.9814 6.86071 17.7172 6.33759 17.4173C6.29621 17.3931 6.29288 17.3339 6.33094 17.3056C6.44102 17.2231 6.55114 17.1372 6.65627 17.0506C6.6753 17.0348 6.70181 17.0314 6.72417 17.0414C10.161 18.6105 13.8817 18.6105 17.2779 17.0414C17.3002 17.0306 17.3268 17.0339 17.3466 17.0498C17.4518 17.1364 17.5618 17.2231 17.6727 17.3056C17.7108 17.3339 17.7083 17.3931 17.667 17.4173C17.1438 17.723 16.6 17.9814 16.028 18.1972C15.9908 18.2114 15.9742 18.2547 15.9924 18.2905C16.3078 18.9013 16.6678 19.483 17.0644 20.0346C17.0809 20.058 17.1107 20.068 17.138 20.0596C18.8539 19.5288 20.5938 18.728 22.3901 17.4089C22.4058 17.3972 22.4157 17.3797 22.4174 17.3606C22.8553 12.8307 21.684 8.89595 19.3125 5.40776C19.3067 5.39611 19.2968 5.38777 19.2852 5.38277ZM8.52531 14.974C7.49063 14.974 6.63807 14.0241 6.63807 12.8574C6.63807 11.6908 7.47409 10.7409 8.52531 10.7409C9.58481 10.7409 10.4291 11.6991 10.4126 12.8574C10.4126 14.0241 9.57654 14.974 8.52531 14.974ZM15.5032 14.974C14.4685 14.974 13.616 14.0241 13.616 12.8574C13.616 11.6908 14.452 10.7409 15.5032 10.7409C16.5628 10.7409 17.407 11.6991 17.3905 12.8574C17.3905 14.0241 16.5628 14.974 15.5032 14.974Z" fill="#9E9E9F"/>
</g>
<defs>
<clipPath id="clip0_8785_88681">
<rect width="21" height="21" fill="white" transform="translate(1.50781 1.74658)"/>
</clipPath>
</defs>
</svg>
