<svg width="91" height="77" viewBox="0 0 91 77" fill="none" xmlns="http://www.w3.org/2000/svg">
<g opacity="0.4">
<path d="M69.7976 25.0795C69.7976 30.6704 67.9256 35.924 64.8056 40.0689C63.0775 42.3342 61.0135 44.3103 58.6135 45.8526C54.7735 48.4071 50.1174 49.853 45.1733 49.853C31.5892 49.9012 20.5491 38.8158 20.5491 25.0795C20.5491 11.3914 31.5412 0.257812 45.1733 0.257812C50.1174 0.257812 54.7255 1.70374 58.6135 4.2582C61.0135 5.80052 63.0775 7.77662 64.8056 10.0419C67.9256 14.2351 69.7976 19.4404 69.7976 25.0795Z" fill="#2A2E37"/>
<path d="M26.4201 21.7609H26.1228C25.8999 21.7609 25.7512 21.6915 25.7512 21.5875C25.7512 21.4834 25.8999 21.4141 26.1228 21.4141H26.4201C26.643 21.4141 26.7917 21.4834 26.7917 21.5875C26.7917 21.6915 26.643 21.7609 26.4201 21.7609Z" fill="#2D5887"/>
<path d="M26.4201 23.1481H26.1228C25.8999 23.1481 25.7512 23.0787 25.7512 22.9747C25.7512 22.8706 25.8999 22.8013 26.1228 22.8013H26.4201C26.643 22.8013 26.7917 22.8706 26.7917 22.9747C26.7917 23.0787 26.643 23.1481 26.4201 23.1481Z" fill="#2D5887"/>
<path d="M26.4201 24.5351H26.1228C25.8999 24.5351 25.7512 24.4657 25.7512 24.3616C25.7512 24.2576 25.8999 24.1882 26.1228 24.1882H26.4201C26.643 24.1882 26.7917 24.2576 26.7917 24.3616C26.7917 24.4657 26.643 24.5351 26.4201 24.5351Z" fill="#2D5887"/>
<path d="M26.4201 25.9227H26.1228C25.8999 25.9227 25.7512 25.8534 25.7512 25.7493C25.7512 25.6453 25.8999 25.5759 26.1228 25.5759H26.4201C26.643 25.5759 26.7917 25.6453 26.7917 25.7493C26.7917 25.8534 26.643 25.9227 26.4201 25.9227Z" fill="#2D5887"/>
<path d="M39.9874 21.7609H35.0989C34.9007 21.7609 34.7686 21.6915 34.7686 21.5875C34.7686 21.4834 34.9007 21.4141 35.0989 21.4141H39.9874C40.1856 21.4141 40.3177 21.4834 40.3177 21.5875C40.3177 21.6915 40.1856 21.7609 39.9874 21.7609Z" fill="white"/>
<path d="M50.4032 25.9227H35.0876C34.8962 25.9227 34.7686 25.8534 34.7686 25.7493C34.7686 25.6453 34.8962 25.5759 35.0876 25.5759H50.4032C50.5947 25.5759 50.7223 25.6453 50.7223 25.7493C50.7223 25.8534 50.5947 25.9227 50.4032 25.9227Z" fill="url(#paint0_linear_10904_45810)"/>
<path d="M40.0069 23.1481H33.3462C33.1594 23.1481 33.0349 23.0787 33.0349 22.9747C33.0349 22.8706 33.1594 22.8013 33.3462 22.8013H40.0069C40.1936 22.8013 40.3181 22.8706 40.3181 22.9747C40.3181 23.0787 40.1936 23.1481 40.0069 23.1481Z" fill="#2D5887"/>
<path d="M45.2099 24.5351H33.3455C33.1591 24.5351 33.0349 24.4657 33.0349 24.3616C33.0349 24.2576 33.1591 24.1882 33.3455 24.1882H45.2099C45.3962 24.1882 45.5205 24.2576 45.5205 24.3616C45.4583 24.4657 45.3341 24.5351 45.2099 24.5351Z" fill="#2D5887"/>
<path d="M50.385 24.5351H45.8583C45.6556 24.5351 45.5205 24.4657 45.5205 24.3616C45.5205 24.2576 45.6556 24.1882 45.8583 24.1882H50.385C50.5877 24.1882 50.7228 24.2576 50.7228 24.3616C50.7228 24.4657 50.5877 24.5351 50.385 24.5351Z" fill="white"/>
<path d="M53.1693 24.5351H51.3977C51.2008 24.5351 51.0696 24.4657 51.0696 24.3616C51.0696 24.2576 51.2008 24.1882 51.3977 24.1882H53.1693C53.3661 24.1882 53.4973 24.2576 53.4973 24.3616C53.4973 24.4657 53.3661 24.5351 53.1693 24.5351Z" fill="url(#paint1_linear_10904_45810)"/>
<path d="M15 43.6106H73.2659" stroke="#2B323C" stroke-width="2" stroke-miterlimit="10" stroke-linecap="round" stroke-linejoin="round"/>
<g filter="url(#filter0_d_10904_45810)">
<path d="M55.9248 21.4141V43.6106H24.4556C23.2142 43.6106 22.2832 42.613 22.2832 41.4284V21.4141H55.9248Z" fill="#5C6479"/>
</g>
<path d="M68.4104 21.4141V41.4284C68.4104 42.6753 67.3753 43.6106 66.1461 43.6106H55.9248V21.4141H68.4104Z" fill="#DAE1ED"/>
<g filter="url(#filter1_d_10904_45810)">
<path d="M68.4104 21.4141V41.4284C68.4104 42.6753 67.3753 43.6106 66.1461 43.6106H55.9248V21.4141H68.4104Z" fill="#474E61"/>
</g>
<path d="M34.4221 21.4139L41.0395 11.0093H75.0002L68.1955 21.4139H34.4221Z" fill="#C5CDDB"/>
<path d="M34.4221 21.4139L41.0395 11.0093H75.0002L68.1955 21.4139H34.4221Z" fill="#5A6177"/>
<path opacity="0.3" d="M68.4104 21.4748V33.206H59.3063C58.4609 33.206 57.8757 32.6589 57.7456 31.8687L55.9248 21.4141L68.4104 21.4748Z" fill="url(#paint2_linear_10904_45810)"/>
<path d="M68.1487 21.4141H55.9248L62.1318 30.8218C62.5751 31.4449 63.2718 31.8187 63.9685 31.8187H73.469C74.1024 31.8187 74.5457 31.071 74.1657 30.5726L68.1487 21.4141Z" fill="#6F778B"/>
<path d="M55.9249 21.4139L49.2612 11.0093H15L21.9151 21.4139H55.9249Z" fill="#474E61"/>
<path d="M39.0728 34.2463H25.9564C25.65 34.2463 25.4048 34.0151 25.4048 33.726C25.4048 33.437 25.65 33.2058 25.9564 33.2058H39.0728C39.3793 33.2058 39.6244 33.437 39.6244 33.726C39.5631 34.0151 39.3793 34.2463 39.0728 34.2463Z" fill="#42495B"/>
<path d="M39.0728 36.6744H25.9564C25.65 36.6744 25.4048 36.5202 25.4048 36.3275C25.4048 36.1349 25.65 35.9807 25.9564 35.9807H39.0728C39.3793 35.9807 39.6244 36.1349 39.6244 36.3275C39.5631 36.5202 39.3793 36.6744 39.0728 36.6744Z" fill="#42495B"/>
<path d="M32.1278 39.449H25.965C25.6538 39.449 25.4048 39.2949 25.4048 39.1022C25.4048 38.9095 25.6538 38.7554 25.965 38.7554H32.1278C32.439 38.7554 32.688 38.9095 32.688 39.1022C32.6258 39.2949 32.3768 39.449 32.1278 39.449Z" fill="#42495B"/>
</g>
<defs>
<filter id="filter0_d_10904_45810" x="0.283203" y="10.4141" width="77.6416" height="66.1965" filterUnits="userSpaceOnUse" color-interpolation-filters="sRGB">
<feFlood flood-opacity="0" result="BackgroundImageFix"/>
<feColorMatrix in="SourceAlpha" type="matrix" values="0 0 0 0 0 0 0 0 0 0 0 0 0 0 0 0 0 0 127 0" result="hardAlpha"/>
<feOffset dy="11"/>
<feGaussianBlur stdDeviation="11"/>
<feColorMatrix type="matrix" values="0 0 0 0 0 0 0 0 0 0 0 0 0 0 0 0 0 0 0.27 0"/>
<feBlend mode="normal" in2="BackgroundImageFix" result="effect1_dropShadow_10904_45810"/>
<feBlend mode="normal" in="SourceGraphic" in2="effect1_dropShadow_10904_45810" result="shape"/>
</filter>
<filter id="filter1_d_10904_45810" x="33.9248" y="10.4141" width="56.4856" height="66.1965" filterUnits="userSpaceOnUse" color-interpolation-filters="sRGB">
<feFlood flood-opacity="0" result="BackgroundImageFix"/>
<feColorMatrix in="SourceAlpha" type="matrix" values="0 0 0 0 0 0 0 0 0 0 0 0 0 0 0 0 0 0 127 0" result="hardAlpha"/>
<feOffset dy="11"/>
<feGaussianBlur stdDeviation="11"/>
<feColorMatrix type="matrix" values="0 0 0 0 0 0 0 0 0 0 0 0 0 0 0 0 0 0 0.27 0"/>
<feBlend mode="normal" in2="BackgroundImageFix" result="effect1_dropShadow_10904_45810"/>
<feBlend mode="normal" in="SourceGraphic" in2="effect1_dropShadow_10904_45810" result="shape"/>
</filter>
<linearGradient id="paint0_linear_10904_45810" x1="34.8402" y1="25.7564" x2="50.7408" y2="25.7564" gradientUnits="userSpaceOnUse">
<stop stop-color="#FF66A9"/>
<stop offset="1" stop-color="#F53689"/>
</linearGradient>
<linearGradient id="paint1_linear_10904_45810" x1="51.0858" y1="24.351" x2="53.4969" y2="24.351" gradientUnits="userSpaceOnUse">
<stop stop-color="#83A6FF"/>
<stop offset="1" stop-color="#5A78FF"/>
</linearGradient>
<linearGradient id="paint2_linear_10904_45810" x1="62.1704" y1="33.448" x2="62.1704" y2="22.707" gradientUnits="userSpaceOnUse">
<stop offset="0.00289017" stop-color="#484F62"/>
<stop offset="1" stop-color="#15171C"/>
</linearGradient>
</defs>
</svg>
