<svg width="112" height="34" viewBox="0 0 112 34" fill="none" xmlns="http://www.w3.org/2000/svg">
<path d="M42.6762 11.9111V15.9691H48.1878V18.543H42.6762V22.8326H48.8913V25.4761H39.3931V9.26758H48.8913V11.9111H42.6762Z" fill="white"/>
<path d="M55.3399 15.2955V21.5096C55.3399 21.9428 55.4451 22.2557 55.6564 22.4484C55.8677 22.6419 56.2227 22.7387 56.724 22.7387H58.248V25.4745H56.1842C53.417 25.4745 52.0329 24.145 52.0329 21.4861V15.2955H50.4851V12.6294H52.0329V9.45312H55.3399V12.6294H58.248V15.2955H55.3399Z" fill="white"/>
<path d="M70.2079 13.0817C70.9736 13.5067 71.5719 14.1326 72.0018 14.9601C72.4318 15.7876 72.6467 16.7797 72.6467 17.9392V25.4746H69.3636V18.3796C69.3636 17.3594 69.1056 16.5753 68.5896 16.0264C68.0737 15.4783 67.3702 15.2034 66.4792 15.2034C65.5882 15.2034 64.8573 15.4783 64.3331 16.0264C63.809 16.5753 63.5473 17.3594 63.5473 18.3796V25.4746H60.2642V8.31641H63.5473V14.2293C63.969 13.6731 64.5326 13.2363 65.236 12.9198C65.9395 12.6032 66.7216 12.4441 67.5815 12.4441C68.5668 12.4441 69.4422 12.6566 70.2079 13.0817Z" fill="white"/>
<path d="M77.8074 24.8588C76.8066 24.3108 76.0208 23.5339 75.45 22.5282C74.8792 21.5234 74.5938 20.364 74.5938 19.0499C74.5938 17.7358 74.8865 16.5773 75.4729 15.5716C76.0592 14.5668 76.8606 13.7899 77.8769 13.241C78.8933 12.6929 80.0267 12.418 81.2772 12.418C82.5277 12.418 83.6611 12.6929 84.6775 13.241C85.6938 13.7899 86.4951 14.5668 87.0815 15.5716C87.6679 16.5764 87.9606 17.7358 87.9606 19.0499C87.9606 20.364 87.6597 21.5234 87.0577 22.5282C86.4558 23.533 85.6426 24.3099 84.6189 24.8588C83.5944 25.4078 82.45 25.6818 81.183 25.6818C79.916 25.6818 78.8064 25.4078 77.8056 24.8588H77.8074ZM82.8616 22.4242C83.3849 22.1384 83.8029 21.7097 84.1167 21.1372C84.4296 20.5657 84.586 19.8702 84.586 19.0508C84.586 17.8299 84.2612 16.8911 83.6126 16.2336C82.9641 15.577 82.17 15.2478 81.2324 15.2478C80.2947 15.2478 79.5089 15.5761 78.8759 16.2336C78.2428 16.8911 77.9263 17.8299 77.9263 19.0508C77.9263 20.2717 78.2346 21.2114 78.853 21.868C79.4705 22.5255 80.2481 22.8538 81.1866 22.8538C81.7803 22.8538 82.3393 22.7109 82.8634 22.4251L82.8616 22.4242Z" fill="white"/>
<path d="M94.9625 13.0231C95.6422 12.6369 96.4198 12.4434 97.2961 12.4434V15.852H96.428C95.3961 15.852 94.6176 16.0917 94.0944 16.571C93.5702 17.0503 93.3086 17.8851 93.3086 19.0753V25.4748H90.0254V12.6297H93.3086V14.6239C93.7303 13.9438 94.2819 13.4102 94.9616 13.024L94.9625 13.0231Z" fill="white"/>
<path d="M99.09 15.55C99.6133 14.5452 100.325 13.7729 101.224 13.2312C102.123 12.6903 103.128 12.4199 104.238 12.4199C105.207 12.4199 106.055 12.6135 106.782 12.9996C107.51 13.3858 108.092 13.8733 108.53 14.4602V12.6288H111.837V25.474H108.53V23.5955C108.108 24.1988 107.525 24.6971 106.782 25.0914C106.04 25.4857 105.183 25.6829 104.215 25.6829C103.12 25.6829 102.123 25.4043 101.224 24.8481C100.325 24.2919 99.6133 23.5069 99.09 22.4949C98.5658 21.4829 98.3042 20.3189 98.3042 19.0057C98.3042 17.6925 98.5658 16.5557 99.09 15.5509V15.55ZM108.06 17.0224C107.748 16.458 107.325 16.0257 106.794 15.7237C106.263 15.4225 105.692 15.2715 105.083 15.2715C104.474 15.2715 103.91 15.4189 103.394 15.7119C102.878 16.0058 102.46 16.4345 102.139 16.9989C101.819 17.5632 101.658 18.2316 101.658 19.0048C101.658 19.7781 101.818 20.4537 102.139 21.0334C102.459 21.6131 102.882 22.0581 103.405 22.3665C103.928 22.6758 104.487 22.8304 105.082 22.8304C105.676 22.8304 106.262 22.6794 106.793 22.3782C107.325 22.077 107.747 21.6438 108.06 21.0795C108.372 20.5152 108.529 19.8387 108.529 19.0509C108.529 18.2632 108.372 17.5867 108.06 17.0224H108.06Z" fill="white"/>
<path d="M13.6246 20.4092C13.3209 20.1352 12.9715 19.9281 12.6056 19.7924C12.2396 19.6568 11.8582 19.5898 11.4776 19.5898C10.9681 19.5898 10.4567 19.7092 9.98561 19.9543C9.75051 20.0773 9.5273 20.2311 9.32422 20.4156C9.12113 20.5991 8.94001 20.8126 8.78906 21.0468L4.25903 28.0631C5.21956 29.0842 6.3109 29.9831 7.50745 30.7338L11.4804 24.5794L17.1136 33.2335C18.6615 33.1594 20.1526 32.8736 21.5595 32.4051L14.1589 21.036C14.007 20.8026 13.8259 20.591 13.6237 20.4092H13.6246Z" fill="#1E3EF0"/>
<path d="M9.4227 13.6948C9.7264 13.9689 10.0759 14.176 10.4409 14.3116C10.8068 14.4473 11.1873 14.5142 11.5679 14.5142C12.0738 14.5142 12.5824 14.3967 13.0507 14.1543C13.284 14.0331 13.5072 13.8812 13.7094 13.6994C13.9116 13.5185 14.0927 13.3078 14.2445 13.0762L21.7385 1.64379C20.3416 1.16085 18.8587 0.858778 17.3191 0.765625L11.5706 9.53463L7.48609 3.26718C6.29137 4.01873 5.20186 4.91951 4.24316 5.94238L8.88754 13.0681C9.0394 13.3005 9.22053 13.5122 9.4227 13.6939V13.6948Z" fill="#5AD4FF"/>
<path d="M7.85437 19.2116C8.1471 18.9077 8.36848 18.5541 8.51302 18.1842C8.65847 17.8134 8.72891 17.4263 8.72891 17.0401C8.72891 16.5282 8.6045 16.0127 8.34653 15.5406C8.21754 15.3046 8.05562 15.0812 7.8626 14.8786C7.66958 14.6769 7.44638 14.497 7.20121 14.3495L1.14074 10.6895C0.58272 11.9999 0.193935 13.3981 0 14.8569L3.60792 17.0356L0.00731831 19.1817C0.204913 20.636 0.596442 22.0297 1.15721 23.3356L7.18749 19.7397C7.43448 19.5923 7.66044 19.4132 7.85529 19.2107L7.85437 19.2116Z" fill="#1E3EF0"/>
<path d="M19.5148 17.0372L31.1536 9.99559C30.5453 8.73667 29.7787 7.5682 28.8786 6.51367L15.9224 14.3512C15.6772 14.4986 15.454 14.6785 15.2619 14.8802C14.9729 15.1832 14.7533 15.535 14.6106 15.9031C14.467 16.2712 14.3975 16.6565 14.3975 17.0408C14.3975 17.5545 14.5237 18.0718 14.7826 18.5457C14.9125 18.7818 15.0753 19.007 15.2693 19.2087C15.4632 19.4112 15.6882 19.5903 15.9343 19.7377L28.8712 27.4812C29.7723 26.4275 30.5407 25.2591 31.1491 24.0001L19.5139 17.0363L19.5148 17.0372Z" fill="#1E3EF0"/>
</svg>
