<svg width="54" height="55" viewBox="0 0 54 55" fill="none" xmlns="http://www.w3.org/2000/svg">
<rect x="0.371094" width="53" height="55" rx="26.5" fill="#1E3EF0"/>
<path d="M24.9188 30.91C24.6151 30.6359 24.2657 30.4288 23.8998 30.2932C23.5338 30.1575 23.1524 30.0906 22.7718 30.0906C22.2623 30.0906 21.7509 30.21 21.2798 30.455C21.0447 30.578 20.8215 30.7318 20.6184 30.9163C20.4153 31.0999 20.2342 31.3133 20.0833 31.5476L15.5532 38.5638C16.5138 39.5849 17.6051 40.4839 18.8016 41.2345L22.7746 35.0801L28.4078 43.7343C29.9557 43.6601 31.4468 43.3743 32.8537 42.9058L25.4531 31.5367C25.3012 31.3034 25.1201 31.0917 24.9179 30.91H24.9188Z" fill="white"/>
<path d="M20.7169 24.1948C21.0206 24.4689 21.37 24.676 21.735 24.8116C22.101 24.9473 22.4815 25.0142 22.8621 25.0142C23.3679 25.0142 23.8766 24.8967 24.3449 24.6543C24.5782 24.5331 24.8014 24.3812 25.0036 24.1994C25.2058 24.0185 25.3869 23.8078 25.5387 23.5762L33.0327 12.1438C31.6358 11.6608 30.1529 11.3588 28.6133 11.2656L22.8648 20.0346L18.7803 13.7672C17.5856 14.5187 16.4961 15.4195 15.5374 16.4424L20.1817 23.5681C20.3336 23.8005 20.5147 24.0122 20.7169 24.1939V24.1948Z" fill="white"/>
<path d="M19.1486 29.7116C19.4413 29.4077 19.6627 29.0541 19.8072 28.6842C19.9527 28.3134 20.0231 27.9263 20.0231 27.5401C20.0231 27.0282 19.8987 26.5127 19.6407 26.0406C19.5117 25.8046 19.3498 25.5812 19.1568 25.3786C18.9638 25.1769 18.7406 24.997 18.4954 24.8495L12.4349 21.1895C11.8769 22.4999 11.4881 23.8981 11.2942 25.3569L14.9021 27.5356L11.3015 29.6817C11.4991 31.136 11.8906 32.5297 12.4514 33.8356L18.4817 30.2397C18.7287 30.0923 18.9546 29.9132 19.1495 29.7107L19.1486 29.7116Z" fill="white"/>
<path d="M30.809 27.5365L42.4478 20.4949C41.8395 19.2359 41.0729 18.0675 40.1727 17.0129L27.2166 24.8504C26.9714 24.9978 26.7482 25.1778 26.5561 25.3795C26.2671 25.6825 26.0475 26.0343 25.9048 26.4024C25.7612 26.7705 25.6917 27.1557 25.6917 27.5401C25.6917 28.0538 25.8179 28.5711 26.0768 29.045C26.2067 29.281 26.3695 29.5062 26.5634 29.7079C26.7574 29.9105 26.9824 30.0896 27.2285 30.237L40.1654 37.9804C41.0665 36.9268 41.8349 35.7583 42.4433 34.4994L30.8081 27.5356L30.809 27.5365Z" fill="white"/>
</svg>
