<svg width="102" height="25" viewBox="0 0 102 25" fill="none" xmlns="http://www.w3.org/2000/svg">
<path d="M4.688 5.28V10.88H12.208V14.432H4.688V20.352H13.168V24H0.208V1.632H13.168V5.28H4.688ZM22.4553 9.952V18.528C22.4553 19.1253 22.5939 19.5627 22.8713 19.84C23.1699 20.096 23.6606 20.224 24.3433 20.224H26.4233V24H23.6073C19.8313 24 17.9433 22.1653 17.9433 18.496V9.952H15.8313V6.272H17.9433V1.888H22.4553V6.272H26.4233V9.952H22.4553ZM39.6295 6.016C40.9735 6.016 42.1682 6.31467 43.2135 6.912C44.2588 7.488 45.0695 8.352 45.6455 9.504C46.2428 10.6347 46.5415 12 46.5415 13.6V24H42.0615V14.208C42.0615 12.8 41.7095 11.7227 41.0055 10.976C40.3015 10.208 39.3415 9.824 38.1255 9.824C36.8882 9.824 35.9068 10.208 35.1815 10.976C34.4775 11.7227 34.1255 12.8 34.1255 14.208V24H29.6455V0.32H34.1255V8.48C34.7015 7.712 35.4695 7.11467 36.4295 6.688C37.3895 6.24 38.4562 6.016 39.6295 6.016ZM58.6738 24.288C56.9671 24.288 55.4311 23.9147 54.0658 23.168C52.7004 22.4 51.6231 21.3227 50.8338 19.936C50.0658 18.5493 49.6818 16.9493 49.6818 15.136C49.6818 13.3227 50.0764 11.7227 50.8658 10.336C51.6764 8.94933 52.7751 7.88267 54.1618 7.136C55.5484 6.368 57.0951 5.984 58.8018 5.984C60.5084 5.984 62.0551 6.368 63.4418 7.136C64.8284 7.88267 65.9164 8.94933 66.7058 10.336C67.5164 11.7227 67.9218 13.3227 67.9218 15.136C67.9218 16.9493 67.5058 18.5493 66.6737 19.936C65.8631 21.3227 64.7538 22.4 63.3458 23.168C61.9591 23.9147 60.4018 24.288 58.6738 24.288ZM58.6738 20.384C59.4844 20.384 60.2418 20.192 60.9458 19.808C61.6711 19.4027 62.2471 18.8053 62.6738 18.016C63.1004 17.2267 63.3138 16.2667 63.3138 15.136C63.3138 13.4507 62.8658 12.16 61.9698 11.264C61.0951 10.3467 60.0178 9.888 58.7378 9.888C57.4578 9.888 56.3804 10.3467 55.5058 11.264C54.6524 12.16 54.2258 13.4507 54.2258 15.136C54.2258 16.8213 54.6418 18.1227 55.4738 19.04C56.3271 19.936 57.3938 20.384 58.6738 20.384ZM75.688 9.024C76.264 8.08533 77.0107 7.34933 77.928 6.816C78.8667 6.28267 79.9333 6.016 81.128 6.016V10.72H79.944C78.536 10.72 77.4693 11.0507 76.744 11.712C76.04 12.3733 75.688 13.5253 75.688 15.168V24H71.208V6.272H75.688V9.024ZM82.9935 15.072C82.9935 13.28 83.3455 11.6907 84.0495 10.304C84.7748 8.91733 85.7455 7.85067 86.9615 7.104C88.1988 6.35733 89.5748 5.984 91.0895 5.984C92.4122 5.984 93.5642 6.25067 94.5455 6.784C95.5482 7.31733 96.3482 7.98933 96.9455 8.8V6.272H101.458V24H96.9455V21.408C96.3695 22.24 95.5695 22.9333 94.5455 23.488C93.5428 24.0213 92.3802 24.288 91.0575 24.288C89.5642 24.288 88.1988 23.904 86.9615 23.136C85.7455 22.368 84.7748 21.2907 84.0495 19.904C83.3455 18.496 82.9935 16.8853 82.9935 15.072ZM96.9455 15.136C96.9455 14.048 96.7322 13.12 96.3055 12.352C95.8788 11.5627 95.3028 10.9653 94.5775 10.56C93.8522 10.1333 93.0735 9.92 92.2415 9.92C91.4095 9.92 90.6415 10.1227 89.9375 10.528C89.2335 10.9333 88.6575 11.5307 88.2095 12.32C87.7828 13.088 87.5695 14.0053 87.5695 15.072C87.5695 16.1387 87.7828 17.0773 88.2095 17.888C88.6575 18.6773 89.2335 19.2853 89.9375 19.712C90.6628 20.1387 91.4308 20.352 92.2415 20.352C93.0735 20.352 93.8522 20.1493 94.5775 19.744C95.3028 19.3173 95.8788 18.72 96.3055 17.952C96.7322 17.1627 96.9455 16.224 96.9455 15.136Z" fill="white"/>
</svg>
