<svg width="25" height="25" viewBox="0 0 25 25" fill="none" xmlns="http://www.w3.org/2000/svg">
<path d="M5.75 20.75V5.75C5.75 5.35218 5.90804 4.97064 6.18934 4.68934C6.47064 4.40804 6.85218 4.25 7.25 4.25H14.75C15.1478 4.25 15.5294 4.40804 15.8107 4.68934C16.092 4.97064 16.25 5.35218 16.25 5.75V20.75" stroke="#6052FB" stroke-width="2" stroke-linecap="round" stroke-linejoin="round"/>
<path d="M3.5 20.75H18.5" stroke="#6052FB" stroke-width="2" stroke-linecap="round" stroke-linejoin="round"/>
<path d="M16.25 11H18.5C18.8978 11 19.2794 11.158 19.5607 11.4393C19.842 11.7206 20 12.1022 20 12.5V16.25C20 16.6478 20.158 17.0294 20.4393 17.3107C20.7206 17.592 21.1022 17.75 21.5 17.75C21.8978 17.75 22.2794 17.592 22.5607 17.3107C22.842 17.0294 23 16.6478 23 16.25V8.61875C22.9983 8.22139 22.84 7.84073 22.5594 7.55938L20.75 5.75" stroke="#6052FB" stroke-width="2" stroke-linecap="round" stroke-linejoin="round"/>
<path d="M13.25 11H8.75" stroke="#6052FB" stroke-width="2" stroke-linecap="round" stroke-linejoin="round"/>
</svg>
