<svg width="24" height="25" viewBox="0 0 24 25" fill="none" xmlns="http://www.w3.org/2000/svg">
<g clip-path="url(#clip0_8785_88690)">
<path fill-rule="evenodd" clip-rule="evenodd" d="M12.0077 2.64648C9.40052 2.64648 9.0736 2.65753 8.04966 2.70425C7.02785 2.75086 6.32998 2.91316 5.71935 3.15049C5.08806 3.39578 4.5527 3.72404 4.01897 4.25773C3.48528 4.79146 3.15702 5.32683 2.91172 5.95812C2.67439 6.56875 2.5121 7.26661 2.46549 8.28842C2.41877 9.31236 2.40771 9.63928 2.40771 12.2465C2.40771 14.8537 2.41877 15.1806 2.46549 16.2046C2.5121 17.2264 2.67439 17.9242 2.91172 18.5349C3.15702 19.1661 3.48528 19.7015 4.01897 20.2352C4.5527 20.7689 5.08806 21.0972 5.71935 21.3425C6.32998 21.5798 7.02785 21.7421 8.04966 21.7887C9.0736 21.8354 9.40052 21.8465 12.0077 21.8465C14.6149 21.8465 14.9418 21.8354 15.9658 21.7887C16.9876 21.7421 17.6854 21.5798 18.2961 21.3425C18.9274 21.0972 19.4627 20.7689 19.9965 20.2352C20.5302 19.7015 20.8584 19.1661 21.1037 18.5349C21.341 17.9242 21.5033 17.2264 21.55 16.2046C21.5967 15.1806 21.6077 14.8537 21.6077 12.2465C21.6077 9.63928 21.5967 9.31236 21.55 8.28842C21.5033 7.26661 21.341 6.56875 21.1037 5.95812C20.8584 5.32683 20.5302 4.79146 19.9965 4.25773C19.4627 3.72404 18.9274 3.39578 18.2961 3.15049C17.6854 2.91316 16.9876 2.75086 15.9658 2.70425C14.9418 2.65753 14.6149 2.64648 12.0077 2.64648ZM12.0077 4.37621C14.571 4.37621 14.8747 4.386 15.8869 4.43219C16.8229 4.47487 17.3313 4.63126 17.6695 4.76273C18.1176 4.93688 18.4374 5.14491 18.7733 5.48087C19.1093 5.81678 19.3173 6.13658 19.4915 6.58468C19.6229 6.92296 19.7793 7.43127 19.822 8.36726C19.8682 9.37954 19.878 9.68318 19.878 12.2465C19.878 14.8098 19.8682 15.1134 19.822 16.1257C19.7793 17.0617 19.6229 17.57 19.4915 17.9083C19.3173 18.3564 19.1093 18.6762 18.7733 19.0121C18.4374 19.3481 18.1176 19.5561 17.6695 19.7302C17.3313 19.8617 16.8229 20.0181 15.8869 20.0608C14.8748 20.107 14.5712 20.1168 12.0077 20.1168C9.44423 20.1168 9.14066 20.107 8.12849 20.0608C7.1925 20.0181 6.68419 19.8617 6.34591 19.7302C5.89781 19.5561 5.57801 19.3481 5.24209 19.0121C4.90617 18.6762 4.69811 18.3564 4.52396 17.9083C4.39249 17.57 4.2361 17.0617 4.19342 16.1257C4.14723 15.1134 4.13744 14.8098 4.13744 12.2465C4.13744 9.68318 4.14723 9.37954 4.19342 8.36726C4.2361 7.43127 4.39249 6.92296 4.52396 6.58468C4.69811 6.13658 4.90614 5.81678 5.24209 5.48087C5.57801 5.14491 5.89781 4.93688 6.34591 4.76273C6.68419 4.63126 7.1925 4.47487 8.12849 4.43219C9.14077 4.386 9.44442 4.37621 12.0077 4.37621ZM12.0077 7.31676C9.28509 7.31676 7.07799 9.52385 7.07799 12.2465C7.07799 14.9691 9.28509 17.1762 12.0077 17.1762C14.7304 17.1762 16.9375 14.9691 16.9375 12.2465C16.9375 9.52385 14.7304 7.31676 12.0077 7.31676ZM12.0077 15.4465C10.2404 15.4465 8.80771 14.0138 8.80771 12.2465C8.80771 10.4792 10.2404 9.04648 12.0077 9.04648C13.775 9.04648 15.2077 10.4792 15.2077 12.2465C15.2077 14.0138 13.775 15.4465 12.0077 15.4465ZM18.2842 7.12199C18.2842 7.75823 17.7684 8.27397 17.1322 8.27397C16.496 8.27397 15.9802 7.75823 15.9802 7.12199C15.9802 6.48575 16.496 5.96997 17.1322 5.96997C17.7684 5.96997 18.2842 6.48575 18.2842 7.12199Z" fill="#9E9E9F"/>
</g>
<defs>
<clipPath id="clip0_8785_88690">
<rect width="19.2" height="19.2" fill="white" transform="translate(2.40771 2.64648)"/>
</clipPath>
</defs>
</svg>
