<svg width="24" height="25" viewBox="0 0 24 25" fill="none" xmlns="http://www.w3.org/2000/svg">
<g clip-path="url(#clip0_8785_88684)">
<path d="M7.20777 6.00659C5.55282 6.00659 3.96565 6.66402 2.79543 7.83425C1.6252 9.00447 0.967773 10.5916 0.967773 12.2466C0.967773 13.9015 1.6252 15.4887 2.79543 16.6589C3.96565 17.8292 5.55282 18.4866 7.20777 18.4866C8.86272 18.4866 10.4499 17.8292 11.6201 16.6589C12.7903 15.4887 13.4478 13.9015 13.4478 12.2466C13.4478 10.5916 12.7903 9.00447 11.6201 7.83425C10.4499 6.66402 8.86272 6.00659 7.20777 6.00659ZM17.0478 6.48659C15.3246 6.48659 13.9278 9.06563 13.9278 12.2466C13.9278 12.8432 13.9767 13.4183 14.0679 13.9592C14.1894 14.6807 14.3857 15.3412 14.6401 15.9104C14.7673 16.1951 14.9089 16.4567 15.063 16.6914C15.3711 17.1608 15.7292 17.5232 16.1199 17.7479C16.4132 17.9159 16.7247 18.0066 17.0478 18.0066C17.3708 18.0066 17.6823 17.9159 17.9756 17.7479C18.3663 17.5232 18.7244 17.1608 19.0326 16.6914C19.1867 16.4567 19.3283 16.1951 19.4555 15.9104C19.7099 15.3416 19.9062 14.6807 20.0276 13.9592C20.1188 13.4183 20.1678 12.8432 20.1678 12.2466C20.1678 9.06563 18.771 6.48659 17.0478 6.48659ZM21.8478 6.96659C21.7235 6.96659 21.6035 7.04963 21.4911 7.20419C21.4158 7.30691 21.3438 7.44131 21.2761 7.60403C21.242 7.68515 21.2089 7.77347 21.1772 7.86851C21.1134 8.05811 21.0539 8.27459 20.9996 8.51315C20.8911 8.99075 20.8033 9.56003 20.7423 10.1917C20.7121 10.5076 20.6886 10.8392 20.6723 11.1829C20.6559 11.5261 20.6478 11.8823 20.6478 12.2466C20.6478 12.6109 20.6559 12.9671 20.6723 13.3108C20.6881 13.6544 20.7116 13.9861 20.7423 14.302C20.8033 14.9336 20.8911 15.5024 20.9996 15.9805C21.0539 16.2196 21.1134 16.4356 21.1772 16.6252C21.2089 16.7202 21.242 16.8085 21.2761 16.8896C21.3443 17.0524 21.4163 17.1868 21.4911 17.2895C21.6035 17.4436 21.7235 17.5266 21.8478 17.5266C22.5107 17.5266 23.0478 15.1626 23.0478 12.2466C23.0478 9.33059 22.5107 6.96659 21.8478 6.96659Z" fill="#9E9E9F"/>
</g>
<defs>
<clipPath id="clip0_8785_88684">
<rect width="24" height="24" fill="white" transform="translate(0.0078125 0.246582)"/>
</clipPath>
</defs>
</svg>
