<svg width="19" height="23" viewBox="0 0 19 23" fill="none" xmlns="http://www.w3.org/2000/svg">
<path d="M14.25 10V8.875C14.25 8.37772 14.0525 7.90081 13.7008 7.54917C13.3492 7.19754 12.8723 7 12.375 7C11.8777 7 11.4008 7.19754 11.0492 7.54917C10.6976 7.90081 10.5 8.37772 10.5 8.875V2.875C10.5 2.37772 10.3025 1.90081 9.95084 1.54917C9.59921 1.19754 9.1223 1 8.62502 1C8.12774 1 7.65082 1.19754 7.29919 1.54917C6.94756 1.90081 6.75002 2.37772 6.75002 2.875V14.2469L4.69689 10.6844C4.44825 10.253 4.03843 9.93803 3.55757 9.80881C3.07672 9.67958 2.56422 9.74667 2.13283 9.99531C1.70144 10.244 1.38649 10.6538 1.25727 11.1346C1.12804 11.6155 1.19513 12.128 1.44377 12.5594C4.50002 19 6.35627 21.25 10.5 21.25C11.4849 21.25 12.4602 21.056 13.3701 20.6791C14.2801 20.3022 15.1069 19.7497 15.8033 19.0533C16.4998 18.3569 17.0522 17.5301 17.4291 16.6201C17.806 15.7102 18 14.7349 18 13.75V10C18 9.50272 17.8025 9.02581 17.4508 8.67417C17.0992 8.32254 16.6223 8.125 16.125 8.125C15.6277 8.125 15.1508 8.32254 14.7992 8.67417C14.4476 9.02581 14.25 9.50272 14.25 10V10Z" stroke="#1E3EF0" stroke-width="2" stroke-linecap="round" stroke-linejoin="round"/>
</svg>
