<svg width="18" height="18" viewBox="0 0 18 18" fill="none" xmlns="http://www.w3.org/2000/svg">
<path d="M8.99977 10.6875C9.93175 10.6875 10.6873 9.93198 10.6873 9C10.6873 8.06802 9.93175 7.3125 8.99977 7.3125C8.06779 7.3125 7.31227 8.06802 7.31227 9C7.31227 9.93198 8.06779 10.6875 8.99977 10.6875Z" fill="#6052FB"/>
<path d="M16.5369 10.5469L16.5204 10.5335L15.4109 9.6634C15.3406 9.60781 15.2845 9.53635 15.2472 9.45489C15.21 9.37342 15.1925 9.28427 15.1964 9.19477V8.78836C15.1929 8.69942 15.2105 8.61092 15.2479 8.53012C15.2852 8.44932 15.3412 8.37854 15.4112 8.32359L16.5204 7.45312L16.5369 7.43977C16.708 7.29726 16.8228 7.09856 16.8608 6.87919C16.8988 6.65982 16.8575 6.43408 16.7443 6.24234L15.2428 3.6443C15.2411 3.64185 15.2396 3.63926 15.2382 3.63656C15.1245 3.44748 14.9481 3.30421 14.7397 3.23164C14.5313 3.15907 14.304 3.16178 14.0974 3.2393L14.0851 3.24387L12.7808 3.76875C12.6985 3.80204 12.6095 3.81528 12.521 3.8074C12.4326 3.79951 12.3473 3.77072 12.2721 3.7234C12.1568 3.65074 12.0396 3.58207 11.9206 3.51738C11.8434 3.47552 11.7771 3.4161 11.7271 3.34392C11.6771 3.27174 11.6447 3.18882 11.6326 3.10184L11.4361 1.71L11.4319 1.68469C11.3891 1.46911 11.2734 1.27483 11.1043 1.13449C10.9351 0.994154 10.7228 0.916318 10.5031 0.914062H7.49649C7.27362 0.914776 7.05816 0.994119 6.88805 1.13811C6.71794 1.28211 6.60411 1.48152 6.56661 1.70121L6.56344 1.7209L6.36762 3.11555C6.35561 3.20228 6.32352 3.28501 6.2739 3.35715C6.22428 3.42929 6.1585 3.48885 6.0818 3.53109C5.96157 3.59578 5.84415 3.66434 5.73024 3.7357C5.65524 3.78274 5.57015 3.81131 5.48196 3.81907C5.39377 3.82683 5.305 3.81356 5.22294 3.78035L3.91759 3.25301L3.90528 3.24809C3.69837 3.17049 3.47081 3.16788 3.26218 3.24072C3.05354 3.31356 2.87705 3.45724 2.76341 3.64676L2.75884 3.65449L1.2552 6.2543C1.14187 6.44623 1.1005 6.67221 1.13851 6.89185C1.17651 7.11148 1.29139 7.31043 1.46262 7.45312L1.47915 7.46648L2.58868 8.3366C2.65894 8.39219 2.71502 8.46365 2.7523 8.54511C2.78958 8.62658 2.807 8.71573 2.80313 8.80523V9.21164C2.80665 9.30058 2.78902 9.38908 2.75168 9.46988C2.71433 9.55068 2.65835 9.62146 2.58833 9.67641L1.47915 10.5469L1.46262 10.5602C1.29156 10.7027 1.17677 10.9014 1.13877 11.1208C1.10077 11.3402 1.14204 11.5659 1.2552 11.7577L2.75673 14.3557C2.75845 14.3582 2.75998 14.3607 2.7613 14.3634C2.87507 14.5525 3.05147 14.6958 3.25987 14.7684C3.46827 14.8409 3.69551 14.8382 3.90212 14.7607L3.91442 14.7561L5.21766 14.2312C5.29999 14.198 5.38904 14.1847 5.47749 14.1926C5.56593 14.2005 5.65124 14.2293 5.72637 14.2766C5.84169 14.3495 5.95887 14.4182 6.07794 14.4826C6.15513 14.5245 6.22141 14.5839 6.27142 14.6561C6.32144 14.7283 6.35379 14.8112 6.36587 14.8982L6.56134 16.29L6.56555 16.3153C6.60841 16.5312 6.72441 16.7258 6.89398 16.8662C7.06356 17.0065 7.27636 17.0842 7.49649 17.0859H10.5031C10.7259 17.0852 10.9414 17.0059 11.1115 16.8619C11.2816 16.7179 11.3954 16.5185 11.4329 16.2988L11.4361 16.2791L11.6319 14.8845C11.6441 14.7976 11.6765 14.7147 11.7264 14.6426C11.7764 14.5704 11.8425 14.5109 11.9195 14.4689C12.0397 14.4042 12.1572 14.3357 12.2711 14.2643C12.3461 14.2173 12.4312 14.1887 12.5193 14.1809C12.6075 14.1732 12.6963 14.1864 12.7784 14.2196L14.0837 14.7452L14.096 14.7502C14.3029 14.8279 14.5305 14.8306 14.7392 14.7577C14.9479 14.6849 15.1243 14.5411 15.2379 14.3515C15.2393 14.3488 15.2408 14.3462 15.2425 14.3438L16.744 11.7461C16.8575 11.5541 16.899 11.3281 16.8611 11.1084C16.8232 10.8886 16.7082 10.6896 16.5369 10.5469ZM11.8091 9.13219C11.7835 9.67661 11.6003 10.2019 11.2817 10.6441C10.9631 11.0863 10.5229 11.4264 10.0146 11.6231C9.50629 11.8198 8.95179 11.8645 8.41853 11.7519C7.88527 11.6392 7.39622 11.3741 7.01086 10.9887C6.62549 10.6033 6.36041 10.1142 6.24785 9.58093C6.13529 9.04765 6.18009 8.49316 6.37682 7.98488C6.57355 7.47661 6.91373 7.03644 7.35598 6.7179C7.79823 6.39937 8.32351 6.2162 8.86794 6.19066C9.25879 6.17346 9.64895 6.23777 10.0136 6.37951C10.3783 6.52125 10.7094 6.73732 10.986 7.01398C11.2627 7.29064 11.4787 7.62183 11.6204 7.9865C11.7621 8.35117 11.8264 8.74134 11.8091 9.13219Z" fill="#6052FB"/>
</svg>
