<svg width="19" height="19" viewBox="0 0 19 19" fill="none" xmlns="http://www.w3.org/2000/svg">
<path fill-rule="evenodd" clip-rule="evenodd" d="M9.50005 0.75C9.7708 0.75 10.0108 0.924329 10.0944 1.18182L11.9854 7H18.25C18.524 7 18.7659 7.17835 18.847 7.43998C18.9281 7.70161 18.8294 7.98555 18.6035 8.14046L13.5247 11.6231L15.4829 17.4251C15.5698 17.6828 15.4802 17.9671 15.2612 18.1283C15.0422 18.2895 14.7441 18.2907 14.5239 18.1311L9.50005 14.4906L4.47616 18.1311C4.25596 18.2907 3.95787 18.2895 3.73888 18.1283C3.5199 17.9671 3.43028 17.6828 3.51724 17.4251L5.47543 11.6231L0.396592 8.14046C0.170692 7.98555 0.071975 7.70161 0.153061 7.43998C0.234146 7.17835 0.476139 7 0.750047 7H7.01474L8.90565 1.18182C8.98933 0.924329 9.2293 0.75 9.50005 0.75ZM9.50005 3.39709L8.06319 7.81818C7.97951 8.07567 7.73955 8.25 7.4688 8.25H2.76667L6.57225 10.8595C6.80291 11.0177 6.90041 11.3099 6.81098 11.5749L5.32744 15.9705L9.13331 13.2127C9.3521 13.0541 9.64799 13.0541 9.86678 13.2127L13.6727 15.9705L12.1891 11.5749C12.0997 11.3099 12.1972 11.0177 12.4278 10.8595L16.2334 8.25H11.5313C11.2605 8.25 11.0206 8.07567 10.9369 7.81818L9.50005 3.39709Z" fill="#FFA500"/>
</svg>
