<svg width="19" height="19" viewBox="0 0 19 19" fill="none" xmlns="http://www.w3.org/2000/svg">
<path d="M14.8907 18.2506C14.7591 18.2511 14.6308 18.2101 14.5239 18.1334L9.50007 14.4912L4.47624 18.1334C4.36891 18.2113 4.2396 18.253 4.10701 18.2525C3.97442 18.252 3.84542 18.2094 3.73866 18.1307C3.6319 18.0521 3.55291 17.9416 3.51311 17.8151C3.47331 17.6886 3.47476 17.5528 3.51725 17.4272L5.47663 11.6236L0.398504 8.14122C0.288508 8.06587 0.20549 7.95733 0.161579 7.83144C0.117668 7.70555 0.115165 7.56892 0.154436 7.4415C0.193707 7.31409 0.272694 7.20257 0.379856 7.12325C0.487018 7.04392 0.61674 7.00095 0.750067 7.0006H7.01491L8.90554 1.18224C8.94626 1.05662 9.02573 0.947132 9.13254 0.86948C9.23935 0.791827 9.36801 0.75 9.50007 0.75C9.63212 0.75 9.76078 0.791827 9.86759 0.86948C9.9744 0.947132 10.0539 1.05662 10.0946 1.18224L11.9852 7.00255H18.2501C18.3836 7.00248 18.5136 7.04516 18.621 7.12434C18.7285 7.20351 18.8078 7.31501 18.8474 7.44252C18.8869 7.57004 18.8845 7.70685 18.8407 7.83293C18.7968 7.95901 18.7137 8.06773 18.6036 8.14317L13.5235 11.6236L15.4817 17.4256C15.5134 17.5195 15.5224 17.6197 15.5077 17.7177C15.4931 17.8158 15.4554 17.909 15.3976 17.9896C15.3399 18.0702 15.2638 18.1359 15.1757 18.1813C15.0875 18.2267 14.9898 18.2504 14.8907 18.2506Z" fill="#FFA500"/>
</svg>
