<svg width="24" height="25" viewBox="0 0 24 25" fill="none" xmlns="http://www.w3.org/2000/svg">
<g clip-path="url(#clip0_8785_88678)">
<path fill-rule="evenodd" clip-rule="evenodd" d="M22.2076 5.8355C21.458 6.17284 20.651 6.40096 19.8045 6.50289C20.669 5.97869 21.3323 5.14748 21.6448 4.15732C20.8354 4.6427 19.941 4.9958 18.9854 5.1851C18.2239 4.36117 17.1355 3.84668 15.9309 3.84668C13.6211 3.84668 11.7472 5.7457 11.7472 8.08763C11.7472 8.42011 11.7831 8.74289 11.8549 9.05353C8.37652 8.87637 5.29323 7.18969 3.22773 4.62085C2.86731 5.24941 2.66135 5.97869 2.66135 6.75528C2.66135 8.22597 3.40015 9.52434 4.52331 10.2852C3.8384 10.2645 3.1918 10.0716 2.62663 9.75611V9.80828C2.62663 11.8638 4.06949 13.5784 5.98532 13.9667C5.63449 14.0662 5.26449 14.116 4.88253 14.116C4.61311 14.116 4.34968 14.0905 4.09464 14.0407C4.62748 15.725 6.17211 16.9518 8.00413 16.9845C6.57204 18.1227 4.76637 18.801 2.80624 18.801C2.46858 18.801 2.13451 18.7816 1.80762 18.7428C3.65999 19.9441 5.86079 20.6467 8.22325 20.6467C15.9225 20.6467 20.1313 14.1851 20.1313 8.58029C20.1313 8.39584 20.1277 8.2114 20.1206 8.0306C20.9384 7.43238 21.6484 6.68612 22.2076 5.8355Z" fill="#9E9E9F"/>
</g>
<defs>
<clipPath id="clip0_8785_88678">
<rect width="20.4" height="16.8" fill="white" transform="translate(1.80762 3.84668)"/>
</clipPath>
</defs>
</svg>
