<svg width="11" height="11" viewBox="0 0 11 11" fill="none" xmlns="http://www.w3.org/2000/svg">
<path d="M5.5 0.625C2.81195 0.625 0.625 2.81195 0.625 5.5C0.625 8.18805 2.81195 10.375 5.5 10.375C8.18805 10.375 10.375 8.18805 10.375 5.5C10.375 2.81195 8.18805 0.625 5.5 0.625ZM7.26508 6.73492C7.30137 6.7694 7.33038 6.81079 7.35042 6.85666C7.37046 6.90252 7.38112 6.95194 7.38176 7.00199C7.3824 7.05204 7.37301 7.10171 7.35416 7.14807C7.3353 7.19444 7.30735 7.23656 7.27195 7.27195C7.23656 7.30735 7.19444 7.3353 7.14807 7.35416C7.10171 7.37301 7.05204 7.3824 7.00199 7.38176C6.95194 7.38112 6.90252 7.37046 6.85666 7.35042C6.81079 7.33038 6.7694 7.30137 6.73492 7.26508L5.5 6.03039L4.26508 7.26508C4.19418 7.33244 4.09977 7.36943 4.00199 7.36818C3.9042 7.36693 3.81077 7.32753 3.74162 7.25838C3.67247 7.18923 3.63307 7.0958 3.63182 6.99801C3.63057 6.90023 3.66756 6.80582 3.73492 6.73492L4.96961 5.5L3.73492 4.26508C3.66756 4.19418 3.63057 4.09977 3.63182 4.00199C3.63307 3.9042 3.67247 3.81077 3.74162 3.74162C3.81077 3.67247 3.9042 3.63307 4.00199 3.63182C4.09977 3.63057 4.19418 3.66756 4.26508 3.73492L5.5 4.96961L6.73492 3.73492C6.80582 3.66756 6.90023 3.63057 6.99801 3.63182C7.0958 3.63307 7.18923 3.67247 7.25838 3.74162C7.32753 3.81077 7.36693 3.9042 7.36818 4.00199C7.36943 4.09977 7.33244 4.19418 7.26508 4.26508L6.03039 5.5L7.26508 6.73492Z" fill="#F03D3E"/>
</svg>
